<svg width="101" height="116" viewBox="0 0 101 116" fill="none" xmlns="http://www.w3.org/2000/svg">
<path d="M80.7639 7.76999C78.045 5.04463 74.4781 3.67871 70.9112 3.67871C67.3443 3.67871 63.7773 5.04463 61.0585 7.76999L50.3059 18.5484L40.1036 8.32024C37.3847 5.59488 33.8178 4.22896 30.2509 4.22896C26.684 4.22896 23.1171 5.59488 20.3982 8.32024C16.3716 11.9843 16.3134 18.1341 16.3134 18.1341L16.2875 58.9368C16.2875 61.6557 17.8411 63.2741 20.45 63.2741H32.6526C35.6822 63.2741 36.7827 61.0407 36.7827 59.5453V44.2095C41.243 48.4562 46.3441 53.3243 47.2828 54.2694C48.1632 55.1563 49.1277 56.0237 50.3965 56.0626C50.4289 56.0626 51.6654 56.3798 53.8664 54.1788C54.928 53.1106 59.7184 48.3332 64.2175 43.8405V59.5453C64.2175 61.0472 65.318 63.2741 68.3412 63.2741H80.5438C83.1462 63.2741 84.7063 61.6492 84.7063 58.9368C84.7063 58.9368 84.7322 17.8299 84.7322 17.5903C84.7451 13.9975 83.4957 10.5083 80.7639 7.76999Z" fill="white"/>
<path d="M80.7639 7.76999C78.045 5.04463 74.4781 3.67871 70.9112 3.67871C67.3443 3.67871 63.7773 5.04463 61.0585 7.76999L50.3059 18.5484L40.1036 8.32024C37.3847 5.59488 33.8178 4.22896 30.2509 4.22896C26.684 4.22896 23.1171 5.59488 20.3982 8.32024C16.3716 11.9843 16.3134 18.1341 16.3134 18.1341L16.2875 58.9368C16.2875 61.6557 17.8411 63.2741 20.45 63.2741H32.6526C35.6822 63.2741 36.7827 61.0407 36.7827 59.5453V44.2095C41.243 48.4562 46.3441 53.3243 47.2828 54.2694C48.1632 55.1563 49.1277 56.0237 50.3965 56.0626C50.4289 56.0626 51.6654 56.3798 53.8664 54.1788C54.928 53.1106 59.7184 48.3332 64.2175 43.8405V59.5453C64.2175 61.0472 65.318 63.2741 68.3412 63.2741H80.5438C83.1462 63.2741 84.7063 61.6492 84.7063 58.9368C84.7063 58.9368 84.7322 17.8299 84.7322 17.5903C84.7451 13.9975 83.4957 10.5083 80.7639 7.76999Z" stroke="white" stroke-width="6.7" stroke-miterlimit="10"/>
<path d="M81.5021 20.7168C81.5604 20.5161 81.6187 20.309 81.664 20.1018C81.664 20.1018 81.664 20.1018 81.664 20.0953C81.664 20.0953 81.664 20.0953 81.664 20.1018C81.6187 20.309 81.5604 20.5096 81.5021 20.7168Z" fill="#475658"/>
<path d="M78.6149 10.036C78.4143 9.8353 78.2006 9.64757 77.987 9.46631C78.2006 9.65404 78.4143 9.8353 78.6149 10.036C80.7188 12.1399 81.8776 14.9364 81.8776 17.9078C81.8776 18.0696 81.8517 18.2315 81.8323 18.3933C81.8517 18.2315 81.8776 18.0761 81.8776 17.9078C81.8776 14.9364 80.7188 12.1399 78.6149 10.036Z" fill="#475658"/>
<path d="M78.699 25.6821C78.6667 25.7145 78.6408 25.7468 78.6084 25.7792L74.6984 29.6892C72.8275 31.0745 70.523 31.8384 68.186 31.8384C67.5451 31.8384 66.9172 31.7607 66.3022 31.6507C64.9881 31.4241 63.7516 30.9451 62.6123 30.2589C62.5346 30.2136 62.444 30.1747 62.3663 30.1294C61.952 29.864 61.5765 29.5533 61.2011 29.2296C60.9616 29.0289 60.7091 28.8606 60.4825 28.6405L60.1265 28.2845L58.6958 26.8538L52.3582 20.5162L62.8518 10.0226C64.9557 7.9187 67.7523 6.75994 70.7236 6.75994C75.5141 6.75994 78.4013 9.82192 78.6019 10.0226C79.56 10.9807 80.3109 12.0877 80.8547 13.2853C81.0036 13.6154 81.1396 13.952 81.2561 14.2887C81.651 15.4345 81.8646 16.6515 81.8646 17.8944C81.8711 18.0757 82.1624 22.2252 78.699 25.6821ZM81.7805 58.5094C81.7805 59.953 81.2367 60.2249 80.2333 60.2249H68.2054C66.9884 60.2249 66.7101 59.6034 66.6906 59.1114V41.3739H66.6842C69.8821 38.176 78.3301 29.728 80.0973 27.9608C80.7576 27.3005 81.3014 26.6143 81.774 25.9281V58.5094H81.7805ZM52.1381 52.0294C51.1282 53.0393 50.7593 53.1493 50.6039 53.1364C50.3773 53.1299 49.9695 52.7415 49.2639 52.12C43.6578 47.2325 22.8 26.3294 22.8 26.3294C16.6955 19.2798 20.6961 12.6832 22.8 10.5793C24.9039 8.47543 27.7005 7.31666 30.6783 7.31666C33.6562 7.31666 36.4527 8.47543 38.5502 10.5793L58.5599 30.589C61.7966 33.8258 66.3281 35.2694 68.9628 35.2694C64.522 39.6779 53.7889 50.3722 52.1381 52.0294ZM34.556 59.105C34.556 59.3639 34.4459 60.2184 33.0412 60.2184H21.0134C20.01 60.2184 19.4662 59.9465 19.4662 58.5029V26.3294C19.505 26.3748 19.5374 26.4071 19.5374 26.4071C19.9711 27.0156 20.4178 27.6112 20.968 28.155L30.2252 37.4121L30.1864 37.451C30.2122 37.4769 30.7884 38.0206 31.7141 38.8946L34.5625 41.7429V59.105H34.556ZM80.4469 8.20354C77.7669 5.52349 74.2517 4.18347 70.7366 4.18347C67.2215 4.18347 63.7128 5.52349 61.0263 8.20354L50.4291 18.8007L40.3757 8.74732C37.6956 6.06727 34.1805 4.72725 30.6654 4.72725C27.1503 4.72725 23.6351 6.06727 20.9551 8.74732C16.9868 12.3531 16.935 18.3994 16.935 18.3994H16.9091V58.5094C16.9091 61.183 18.4434 62.7755 21.0069 62.7755H33.0347C36.019 62.7755 37.1001 60.5809 37.1001 59.105V44.0281C41.4956 48.2035 46.5191 52.9939 47.4513 53.9197C48.3187 54.7871 49.2703 55.6416 50.5197 55.6805C50.5521 55.6805 51.7756 55.9977 53.9378 53.829C54.9865 52.7803 59.6992 48.0805 64.1401 43.6591V59.105C64.1401 60.5809 65.2211 62.7755 68.2054 62.7755H80.2333C82.8033 62.7755 84.331 61.183 84.331 58.5094C84.331 58.5094 84.3569 18.0951 84.3569 17.8621C84.3699 14.3275 83.1399 10.8965 80.4469 8.20354Z" fill="#475658"/>
<path d="M80.8676 13.2981C81.0165 13.6282 81.1524 13.9649 81.269 14.3015C81.1524 13.9584 81.0165 13.6218 80.8676 13.2981Z" fill="#D44B4B"/>
<path d="M58.7019 26.8673L60.139 28.2979L52.3708 20.5297L58.7019 26.8673Z" fill="#D44B4B"/>
<path d="M81.8707 17.9076C81.8707 16.6582 81.6571 15.4476 81.2622 14.3018C81.1457 13.9587 81.0097 13.6221 80.8608 13.2984C80.3171 12.1008 79.5661 10.9938 78.6081 10.0357C78.4074 9.83505 75.5072 6.77307 70.7362 6.77307C67.7584 6.77307 64.9618 7.93183 62.8579 10.0357L52.3708 20.5293L60.139 28.2976L60.4951 28.6536C60.7152 28.8737 60.9741 29.042 61.2136 29.2427C61.5891 29.5599 61.9711 29.8771 62.3789 30.1361C62.4566 30.1879 62.5472 30.2202 62.6249 30.2655C63.7642 30.9453 65.0007 31.4308 66.3148 31.6573C66.9363 31.7674 67.5577 31.8386 68.1986 31.8386C70.5355 31.8386 72.8401 31.0747 74.711 29.6894C74.711 29.6894 78.6793 25.7146 78.7052 25.6823C82.162 22.2254 81.8707 18.0759 81.8707 17.9076Z" fill="#D44B4B"/>
<path d="M70.7362 6.77307C71.0793 6.77307 71.0793 6.77307 70.7362 6.77307C67.7584 6.77307 64.9618 7.93183 62.8579 10.0357L52.3708 20.5293L62.8644 10.0357C64.9683 7.93183 67.7649 6.77307 70.7362 6.77307Z" fill="#475658"/>
<path d="M78.6147 25.7845C78.6468 25.7524 78.6724 25.7204 78.7045 25.6884C78.666 25.714 78.6404 25.7524 78.6147 25.7845Z" fill="#475658"/>
<path d="M77.5205 9.09067C77.4428 9.03241 77.3651 8.98063 77.2874 8.92236C78.7051 10.8321 79.482 13.1237 79.482 15.5448C79.482 15.7843 79.4949 17.4415 78.7699 19.3771C78.2196 20.8725 77.3781 22.2579 76.2193 23.4231L72.3093 27.3331C70.4384 28.7249 68.1339 29.4823 65.7969 29.4823C65.156 29.4823 64.5281 29.4046 63.9131 29.3011C62.599 29.0745 61.3625 28.589 60.2232 27.9092C60.1455 27.8639 60.0549 27.8251 59.9772 27.7798C59.5629 27.5144 59.1874 27.2036 58.812 26.88C58.6372 26.7375 58.4624 26.6016 58.2876 26.4592L58.7019 26.8735L60.1326 28.3041L60.4886 28.6602C60.7087 28.8803 60.9676 29.0486 61.2072 29.2493C61.5826 29.5665 61.9646 29.8837 62.3724 30.1491C62.4501 30.2009 62.5407 30.2332 62.6184 30.2786C63.7577 30.9583 64.9942 31.4438 66.3083 31.6704C66.9298 31.7804 67.5512 31.8516 68.1921 31.8516C70.5291 31.8516 72.8336 31.0878 74.7045 29.7024L78.6145 25.7924C82.1814 22.2255 81.8772 18.1601 81.8772 17.9206C81.8772 14.9492 80.7184 12.1527 78.6145 10.0488C78.2649 9.69271 77.9024 9.38198 77.5205 9.09067Z" fill="#D44B4B"/>
<path d="M15.161 95.6223H13.0571C12.7335 95.6223 12.5651 95.4799 12.5651 95.1951V86.0933C12.5651 85.9962 12.5198 85.9962 12.4227 86.0933L11.251 89.2006L9.16653 94.593C9.08885 94.7484 9.0047 94.8714 8.90759 94.962C8.81049 95.0591 8.66807 95.1044 8.48034 95.1044H7.16621C6.972 95.1044 6.82312 95.085 6.7066 95.0462C6.59007 95.0073 6.48648 94.8843 6.38938 94.6772L4.36318 89.343L3.22383 86.1515C3.20441 86.1321 3.1785 86.1192 3.15261 86.1062C3.12024 86.0997 3.10731 86.1127 3.10731 86.1515V95.1951C3.10731 95.4799 2.93252 95.6223 2.5959 95.6223H0.511415C0.168318 95.6223 0 95.4605 0 95.1368V78.5904C0 78.2085 0.200695 78.0208 0.602054 78.0208H2.36932C2.59589 78.0208 2.77715 78.0402 2.90015 78.079C3.02315 78.1179 3.14614 78.2603 3.25619 78.5063C3.31445 78.6552 3.42451 78.94 3.58635 79.3478C3.74818 79.7557 3.93591 80.2347 4.14306 80.772C4.35021 81.3158 4.57679 81.8919 4.81631 82.5004C5.05583 83.109 5.26947 83.6851 5.47015 84.2224C5.67083 84.7662 5.85208 85.2388 6.01392 85.6466C6.17576 86.0544 6.28582 86.3328 6.34408 86.4881L7.74237 90.2234C7.82005 90.4111 7.9042 90.4111 8.0013 90.2234C8.04014 90.0874 8.1243 89.8414 8.26024 89.4789C8.38971 89.1164 8.5386 88.7345 8.6875 88.3396C8.84286 87.9382 8.98528 87.5628 9.11475 87.2002C9.24422 86.8377 9.34133 86.5917 9.39959 86.4558L12.481 78.4998C12.6363 78.1761 12.9341 78.0143 13.3743 78.0143H15.0769C15.4782 78.0143 15.6789 78.202 15.6789 78.584V95.1303C15.6789 95.4605 15.5041 95.6223 15.161 95.6223Z" fill="white"/>
<path d="M24.7806 85.0707L24.0944 81.7886C24.0749 81.7109 24.0426 81.6721 23.9973 81.6591C23.9519 81.6462 23.9131 81.6915 23.9002 81.7886L23.2463 85.0124L22.3595 89.0907C22.34 89.1878 22.34 89.2526 22.3595 89.2914C22.3789 89.3303 22.4436 89.3497 22.5601 89.3497H25.525C25.7128 89.3497 25.771 89.2526 25.6933 89.0649L24.7806 85.0707ZM30.4837 95.0205C30.5226 95.1176 30.5291 95.2406 30.4967 95.3895C30.4643 95.5384 30.3219 95.6161 30.0565 95.6161H27.7454C27.4412 95.6161 27.2535 95.4931 27.1758 95.2471L26.5219 92.3922C26.4831 92.2434 26.4378 92.1333 26.3925 92.0815C26.3472 92.0233 26.263 91.9974 26.1465 91.9974H21.9257C21.7704 91.9974 21.6797 92.0362 21.6409 92.1139C21.6021 92.1916 21.5632 92.2757 21.5244 92.3728C21.4855 92.5217 21.4402 92.7289 21.3819 92.9878C21.3237 93.2468 21.2654 93.5186 21.1942 93.8164C21.1295 94.1142 21.0648 94.3926 21.0065 94.658C20.9482 94.9234 20.9029 95.1241 20.8641 95.26C20.8252 95.396 20.754 95.4866 20.6504 95.5449C20.5469 95.6031 20.4368 95.629 20.3203 95.629H18.1258C17.8603 95.629 17.705 95.5708 17.6532 95.4542C17.6079 95.3377 17.6014 95.2082 17.6402 95.0529L21.8027 78.4224C21.8998 78.1569 22.1005 78.021 22.4048 78.021H25.6545C25.784 78.021 25.9005 78.0339 25.9976 78.0663C26.0947 78.0987 26.1594 78.2022 26.1983 78.3965L30.4837 95.0205Z" fill="white"/>
<path d="M42.8357 80.7334H36.4722C36.2845 80.7334 36.1615 80.7722 36.1032 80.8499C36.045 80.9276 36.0191 81.0312 36.0191 81.1607V95.1694C36.0191 95.4736 35.8637 95.6225 35.5659 95.6225H33.3649C33.0606 95.6225 32.9117 95.4801 32.9117 95.1953V78.4806C32.9117 78.1764 33.0606 78.021 33.3649 78.021H42.8422C42.9587 78.021 43.0623 78.0534 43.1529 78.1181C43.25 78.1828 43.2953 78.2929 43.2953 78.4482V80.2997C43.2888 80.591 43.1399 80.7334 42.8357 80.7334Z" fill="white"/>
<path d="M51.1085 85.0707L50.4223 81.7886C50.4029 81.7109 50.3705 81.6721 50.3252 81.6591C50.2799 81.6462 50.241 81.6915 50.2281 81.7886L49.5743 85.0124L48.6874 89.0907C48.668 89.1878 48.668 89.2526 48.6874 89.2914C48.7068 89.3303 48.7716 89.3497 48.8881 89.3497H51.853C52.0407 89.3497 52.099 89.2526 52.0213 89.0649L51.1085 85.0707ZM56.8117 95.0205C56.8505 95.1176 56.857 95.2406 56.8246 95.3895C56.7987 95.5384 56.6499 95.6161 56.3844 95.6161H54.0734C53.7691 95.6161 53.5814 95.4931 53.5037 95.2471L52.8499 92.3922C52.811 92.2434 52.7657 92.1333 52.7204 92.0815C52.6751 92.0233 52.5909 91.9974 52.4744 91.9974H48.2537C48.0983 91.9974 48.0077 92.0362 47.9688 92.1139C47.93 92.1916 47.8912 92.2757 47.8523 92.3728C47.8135 92.5217 47.7682 92.7289 47.7099 92.9878C47.6516 93.2468 47.5934 93.5186 47.5222 93.8164C47.4574 94.1142 47.3927 94.3926 47.3344 94.658C47.2762 94.9234 47.2308 95.1241 47.192 95.26C47.1532 95.396 47.082 95.4866 46.9784 95.5449C46.8748 95.6031 46.7648 95.629 46.6482 95.629H44.4537C44.1883 95.629 44.0329 95.5708 43.9811 95.4542C43.9358 95.3377 43.9294 95.2082 43.9682 95.0529L48.1307 78.4224C48.2278 78.1569 48.4285 78.021 48.7327 78.021H51.9824C52.1184 78.021 52.2284 78.0339 52.3255 78.0663C52.4226 78.0922 52.4874 78.2022 52.5262 78.3965L56.8117 95.0205Z" fill="white"/>
<path d="M64.1719 77.7358C65.0653 77.7358 65.8615 77.8524 66.5542 78.0919C67.2468 78.3314 67.8295 78.6551 68.2956 79.0629C68.7617 79.4707 69.1177 79.9692 69.3637 80.5454C69.6097 81.128 69.7327 81.7559 69.7327 82.4421C69.7327 83.2189 69.5255 83.9504 69.1048 84.6237C68.684 85.2969 68.1467 85.7695 67.4799 86.0349C67.4411 86.0543 67.4152 86.0802 67.4087 86.1191C67.3957 86.1579 67.4152 86.1967 67.454 86.2356C68.1596 86.4622 68.7681 86.9283 69.2925 87.6339C69.8168 88.3395 70.0758 89.1746 70.0758 90.1456C70.0758 91.039 69.9204 91.8352 69.6162 92.5279C69.3119 93.2205 68.8847 93.8096 68.3344 94.2952C67.7842 94.7807 67.1303 95.1497 66.3794 95.4086C65.6285 95.6675 64.8063 95.797 63.913 95.797C63.3627 95.797 62.8125 95.7582 62.2622 95.6805C61.712 95.6028 61.1876 95.4669 60.6956 95.2662C60.1972 95.0655 59.7375 94.8066 59.3103 94.4829C58.883 94.1592 58.5141 93.7384 58.2098 93.227C58.1321 93.0781 58.0998 92.9487 58.1127 92.8386C58.1192 92.735 58.2033 92.625 58.3522 92.5084L59.867 91.395C60.0353 91.2785 60.1777 91.2332 60.2813 91.2526C60.3849 91.272 60.5144 91.3691 60.6697 91.5374C60.9546 91.9194 61.3818 92.243 61.9515 92.5084C62.5212 92.7739 63.1297 92.9098 63.777 92.9098C64.651 92.9098 65.3631 92.6703 65.9004 92.1977C66.4441 91.7252 66.716 91.0843 66.716 90.288C66.716 89.4141 66.4377 88.7409 65.8874 88.2618C65.3372 87.7892 64.6316 87.5497 63.777 87.5497H61.9515C61.6472 87.5497 61.4919 87.3879 61.4919 87.0642V85.407C61.4919 85.2387 61.5178 85.1092 61.576 85.025C61.6343 84.9409 61.7573 84.8956 61.945 84.8956H64.0813C64.7675 84.8956 65.3307 84.6949 65.7774 84.2935C66.224 83.8922 66.4506 83.3613 66.4506 82.6946C66.4506 82.1637 66.2435 81.6847 65.8356 81.2704C65.4278 80.8496 64.7675 80.6425 63.8547 80.6425C63.4534 80.6425 63.0002 80.7331 62.4888 80.9143C61.9774 81.0956 61.4984 81.3934 61.0646 81.8142C60.9481 81.9113 60.8122 82.0084 60.6503 82.1119C60.4885 82.2155 60.3331 82.2026 60.1778 82.0666L58.8636 80.869C58.6953 80.7525 58.6112 80.636 58.6176 80.513C58.6306 80.39 58.6694 80.2799 58.7471 80.1828C59.4139 79.2895 60.2101 78.6551 61.1423 78.2861C62.081 77.9236 63.0908 77.7358 64.1719 77.7358Z" fill="white"/>
<path d="M73.2156 78.5065C73.2156 78.1828 73.3968 78.021 73.7594 78.021H75.8697C76.2128 78.021 76.3811 78.1828 76.3811 78.5065V89.2008C76.3811 89.2591 76.3941 89.2849 76.4264 89.272C76.4588 89.2655 76.4782 89.2396 76.4977 89.2008C77.4881 87.4335 78.4591 85.6598 79.4108 83.8795C80.3624 82.0993 81.3204 80.3385 82.2915 78.5907C82.4015 78.4029 82.5245 78.2605 82.6605 78.1634C82.7899 78.0663 82.9777 78.021 83.2237 78.021H84.8097C85.1463 78.021 85.3211 78.1828 85.3211 78.5065V95.137C85.3211 95.4607 85.1528 95.6225 84.8097 95.6225H82.7187C82.3821 95.6225 82.2073 95.4607 82.2073 95.137V84.4427C82.2073 84.3845 82.1944 84.3586 82.1814 84.3586H82.1555L82.1296 84.4168C81.1586 86.2035 80.1811 87.9902 79.2036 89.7769C78.2261 91.5636 77.2486 93.3503 76.2776 95.137C76.1416 95.3636 76.0186 95.506 75.9086 95.5513C75.792 95.5966 75.6108 95.6225 75.3648 95.6225H73.7658C73.4033 95.6225 73.2221 95.4607 73.2221 95.137V78.5065H73.2156Z" fill="white"/>
<path d="M97.7763 78.448C97.7763 78.1632 97.9382 78.0208 98.2619 78.0208H100.456C100.819 78.0208 101 78.1567 101 78.4221V95.1692C101 95.4734 100.832 95.6223 100.489 95.6223H98.2942C97.9511 95.6223 97.7828 95.4799 97.7828 95.1951V88.4885C97.7828 88.1648 97.621 88.003 97.2973 88.003H92.6493C92.4421 88.003 92.3062 88.0483 92.2479 88.1324C92.1897 88.2166 92.1638 88.3396 92.1638 88.4885V95.1627C92.1638 95.4669 91.989 95.6158 91.6524 95.6158H89.4578C89.0953 95.6158 88.9141 95.4734 88.9141 95.1886V78.4415C88.9141 78.1567 89.0953 78.0143 89.4578 78.0143H91.6524C91.8077 78.0143 91.9307 78.0402 92.0214 78.0984C92.1185 78.1567 92.1638 78.2603 92.1638 78.4156V84.6626C92.1638 84.8698 92.1897 85.0122 92.235 85.0769C92.2803 85.1417 92.3904 85.174 92.5651 85.174H97.3297C97.498 85.174 97.621 85.1417 97.6857 85.0769C97.7504 85.0122 97.7828 84.8698 97.7828 84.6626V78.448H97.7763Z" fill="white"/>
<path d="M25.8163 111.567H24.7158C24.5216 111.567 24.4245 111.47 24.4245 111.275L24.3209 109.346C24.308 109.087 24.2692 108.828 24.2044 108.589C24.1397 108.349 24.0361 108.129 23.8937 107.948C23.7513 107.76 23.5506 107.618 23.3046 107.514C23.0586 107.411 22.7414 107.359 22.3724 107.359C21.725 107.359 21.2266 107.553 20.89 107.942C20.5533 108.33 20.385 108.79 20.385 109.333V111.366C20.385 111.502 20.3138 111.573 20.1779 111.573H18.9155C18.7796 111.573 18.7084 111.509 18.7084 111.386V102.659C18.7084 102.523 18.7731 102.452 18.8961 102.452H20.1844C20.3074 102.452 20.3721 102.517 20.3721 102.64V105.896C20.3721 106.051 20.4044 106.135 20.4757 106.168C20.5469 106.194 20.6116 106.174 20.6828 106.11L23.8937 102.607C23.9649 102.536 24.062 102.504 24.185 102.504H25.7192C25.8746 102.504 25.9458 102.569 25.9458 102.692C25.9458 102.717 25.9393 102.75 25.9134 102.782C25.894 102.815 25.8681 102.847 25.8422 102.873L23.1039 105.818C23.0198 105.915 23.0457 105.987 23.1881 106.025C23.324 106.038 23.4535 106.051 23.57 106.064C23.6865 106.077 23.8031 106.097 23.9131 106.129C24.3015 106.226 24.6252 106.375 24.8906 106.576C25.1496 106.776 25.3632 107.016 25.525 107.301C25.6804 107.586 25.8034 107.896 25.8746 108.246C25.9523 108.589 26.0041 108.958 26.03 109.346L26.1141 111.23C26.1012 111.45 26.0041 111.567 25.8163 111.567Z" fill="white"/>
<path d="M33.8562 108.861C33.8562 108.492 33.7268 108.174 33.4743 107.902C33.2218 107.637 32.8334 107.501 32.3091 107.501H30.0627C30.0109 107.501 29.9786 107.54 29.9786 107.624V110.032C29.9786 110.103 30.0109 110.136 30.0822 110.136H32.3738C32.8399 110.136 33.2024 110.019 33.4678 109.773C33.7268 109.54 33.8562 109.23 33.8562 108.861ZM33.5843 105.028C33.5843 104.685 33.4549 104.407 33.2024 104.2C32.9499 103.986 32.5874 103.882 32.1213 103.882H30.1016C30.0304 103.882 29.998 103.902 29.9915 103.947C29.9851 103.986 29.9786 104.038 29.9786 104.09V106.103C29.9786 106.2 30.0174 106.245 30.1016 106.245H32.1407C32.6068 106.245 32.9629 106.122 33.2089 105.889C33.4614 105.643 33.5843 105.358 33.5843 105.028ZM35.4552 108.886C35.4552 109.702 35.1833 110.356 34.646 110.841C34.1087 111.327 33.3642 111.567 32.4062 111.567H28.6321C28.4249 111.567 28.3214 111.476 28.3214 111.295V102.756C28.3214 102.685 28.3408 102.627 28.3731 102.568C28.4055 102.51 28.4897 102.484 28.6127 102.484H32.199C33.1377 102.484 33.8692 102.704 34.3935 103.138C34.9179 103.572 35.1833 104.18 35.1833 104.97C35.1833 105.287 35.0992 105.611 34.9244 105.941C34.7496 106.271 34.5036 106.537 34.1864 106.724C34.1605 106.737 34.1411 106.757 34.1346 106.776C34.1281 106.796 34.154 106.821 34.2058 106.847C34.646 107.042 34.9632 107.326 35.1574 107.708C35.3581 108.097 35.4552 108.485 35.4552 108.886Z" fill="white"/>
<path d="M39.2877 108.479C39.2877 108.99 39.4366 109.424 39.7408 109.774C40.0451 110.123 40.5176 110.304 41.152 110.304C41.7217 110.304 42.1684 110.13 42.4985 109.787C42.8287 109.444 42.997 109.01 42.997 108.479C42.997 107.968 42.8481 107.534 42.5503 107.184C42.2525 106.835 41.78 106.653 41.1326 106.653C40.5629 106.653 40.1163 106.828 39.7861 107.171C39.456 107.521 39.2877 107.955 39.2877 108.479ZM37.734 108.518C37.734 108.078 37.8052 107.663 37.9541 107.275C38.0965 106.886 38.3101 106.55 38.595 106.271C38.8798 105.987 39.2294 105.767 39.6437 105.598C40.058 105.43 40.5435 105.352 41.0938 105.352C41.7023 105.352 42.2461 105.482 42.7316 105.747C42.8287 105.805 42.9128 105.818 42.9905 105.799C43.0682 105.779 43.107 105.708 43.107 105.579V105.391C43.107 104.841 42.9646 104.433 42.6798 104.168C42.395 103.909 41.9224 103.773 41.2621 103.773C41.1391 103.773 40.9772 103.786 40.783 103.812C40.5888 103.837 40.3946 103.876 40.1939 103.915C39.9933 103.954 39.7926 104.006 39.6049 104.07C39.4107 104.135 39.2553 104.2 39.1258 104.265C38.9705 104.336 38.8669 104.291 38.8151 104.142L38.4655 103.229C38.4267 103.093 38.4591 103.002 38.5691 102.957C38.9446 102.763 39.3912 102.614 39.9156 102.504C40.4399 102.394 40.9514 102.336 41.4498 102.336C42.0842 102.336 42.6151 102.413 43.0488 102.562C43.476 102.711 43.8191 102.938 44.0781 103.229C44.3305 103.52 44.5118 103.87 44.6154 104.278C44.719 104.685 44.7707 105.139 44.7707 105.637V111.36C44.7707 111.496 44.706 111.567 44.583 111.567H43.4437C43.3207 111.567 43.2559 111.509 43.2559 111.399V111.023C43.2559 110.926 43.23 110.868 43.1718 110.855C43.1135 110.842 43.0552 110.868 42.984 110.939C42.7057 111.217 42.395 111.411 42.0389 111.522C41.6893 111.632 41.3074 111.69 40.9125 111.69C39.8768 111.69 39.087 111.399 38.5497 110.816C37.9994 110.24 37.734 109.476 37.734 108.518Z" fill="white"/>
<path d="M53.2774 105.818C53.2774 105.242 53.1091 104.763 52.7724 104.381C52.4358 104.005 51.9373 103.811 51.29 103.811C50.7074 103.811 50.2348 103.999 49.8593 104.381C49.4839 104.763 49.3026 105.229 49.3026 105.799V108.239C49.3026 108.802 49.4839 109.288 49.8529 109.683C50.2219 110.084 50.7009 110.285 51.2965 110.285C51.905 110.285 52.3905 110.091 52.7465 109.696C53.1026 109.301 53.2838 108.815 53.2838 108.239V105.818H53.2774ZM54.9346 108.233C54.9346 108.718 54.8504 109.171 54.6886 109.592C54.5268 110.013 54.2937 110.382 53.9959 110.699C53.6981 111.016 53.3486 111.269 52.9407 111.444C52.5329 111.625 52.0927 111.715 51.6072 111.715C51.0699 111.715 50.6556 111.651 50.3578 111.521C50.06 111.392 49.827 111.243 49.6457 111.075C49.5357 110.977 49.4515 110.952 49.3868 111.003C49.322 111.055 49.2961 111.12 49.2961 111.198V115.114C49.2961 115.25 49.2314 115.321 49.1084 115.321H47.8202C47.6972 115.321 47.6324 115.256 47.6324 115.133V102.678C47.6324 102.555 47.6972 102.491 47.8202 102.491H48.9595C49.0955 102.491 49.1667 102.555 49.1667 102.678V103.112C49.1667 103.196 49.199 103.235 49.2703 103.229C49.3415 103.222 49.4127 103.177 49.4968 103.093C49.6781 102.944 49.9435 102.788 50.2931 102.627C50.6426 102.471 51.0828 102.387 51.6072 102.387C52.5976 102.387 53.4004 102.678 54.0153 103.267C54.6303 103.857 54.9346 104.692 54.9346 105.786V108.233Z" fill="white"/>
<path d="M63.35 103.876H61.0907C61.0324 103.876 61.0001 103.895 60.9742 103.941C60.9547 103.98 60.9418 104.025 60.9418 104.064V111.275C60.9418 111.385 60.9224 111.463 60.89 111.502C60.8576 111.541 60.7864 111.567 60.6764 111.567H59.5888C59.3817 111.567 59.2846 111.476 59.2846 111.295V104.057C59.2846 103.934 59.2328 103.869 59.1163 103.869H56.9412C56.8311 103.869 56.7534 103.85 56.7016 103.818C56.6498 103.785 56.6304 103.708 56.6304 103.598V102.75C56.6304 102.568 56.734 102.478 56.9412 102.478H63.3435C63.5506 102.478 63.6542 102.562 63.6542 102.73V103.604C63.6672 103.785 63.5636 103.876 63.35 103.876Z" fill="white"/>
<path d="M65.5507 102.698C65.5507 102.562 65.6413 102.491 65.8226 102.491H66.9425C67.0525 102.491 67.1173 102.51 67.1367 102.556C67.1561 102.594 67.169 102.653 67.169 102.724V108.654C67.169 108.822 67.2079 108.848 67.292 108.738L68.412 106.893L70.9625 102.808C71.0337 102.698 71.0985 102.62 71.1567 102.569C71.2215 102.517 71.3251 102.497 71.4804 102.497H72.4126C72.5227 102.497 72.5939 102.517 72.6262 102.562C72.6586 102.601 72.678 102.659 72.678 102.73V111.353C72.678 111.502 72.6003 111.58 72.4515 111.58H71.2668C71.1697 111.58 71.105 111.567 71.0726 111.541C71.0402 111.515 71.0208 111.444 71.0208 111.334V105.339C71.0208 105.268 71.0078 105.242 70.9884 105.249C70.969 105.255 70.9431 105.274 70.9172 105.3L69.862 107.061L67.2079 111.334C67.1237 111.483 67.0525 111.567 67.0007 111.573C66.9425 111.58 66.8842 111.586 66.813 111.586H65.8161C65.706 111.586 65.6348 111.573 65.6024 111.547C65.5701 111.521 65.5507 111.45 65.5507 111.34V102.698Z" fill="white"/>
<path d="M81.1197 105.818C81.1197 105.242 80.9514 104.763 80.6148 104.381C80.2782 104.005 79.7797 103.811 79.1324 103.811C78.5497 103.811 78.0772 103.999 77.7017 104.381C77.3262 104.763 77.145 105.229 77.145 105.799V108.239C77.145 108.802 77.3262 109.288 77.6952 109.683C78.0642 110.084 78.5433 110.285 79.1388 110.285C79.7473 110.285 80.2329 110.091 80.5889 109.696C80.9449 109.301 81.1262 108.815 81.1262 108.239V105.818H81.1197ZM82.7769 108.233C82.7769 108.718 82.6928 109.171 82.531 109.592C82.3627 110.013 82.1361 110.382 81.8383 110.699C81.5405 111.016 81.1909 111.269 80.7831 111.444C80.3753 111.625 79.9351 111.715 79.4496 111.715C78.9123 111.715 78.4979 111.651 78.2002 111.521C77.9024 111.392 77.6693 111.243 77.4881 111.075C77.378 110.977 77.2939 110.952 77.2291 111.003C77.1644 111.055 77.1385 111.12 77.1385 111.198V115.114C77.1385 115.25 77.0738 115.321 76.9508 115.321H75.6625C75.5395 115.321 75.4748 115.256 75.4748 115.133V102.678C75.4748 102.555 75.5395 102.491 75.6625 102.491H76.8019C76.9378 102.491 77.009 102.555 77.009 102.678V103.112C77.009 103.196 77.0414 103.235 77.1126 103.229C77.1838 103.222 77.255 103.177 77.3392 103.093C77.5204 102.944 77.7859 102.788 78.1354 102.627C78.485 102.471 78.9252 102.387 79.4496 102.387C80.44 102.387 81.2427 102.678 81.8577 103.267C82.4727 103.857 82.7769 104.692 82.7769 105.786V108.233Z" fill="white"/>
</svg>
