<svg width="382" height="380" viewBox="0 0 382 380" fill="none" xmlns="http://www.w3.org/2000/svg">
<path d="M6 0.5H332C359.338 0.5 381.5 22.6619 381.5 50V330C381.5 357.338 359.338 379.5 332 379.5H51C23.6619 379.5 1.5 357.338 1.5 330V5C1.5 2.51472 3.51472 0.5 6 0.5Z" stroke="#E0E0E0"/>
<path d="M183.499 133.725C180.207 140.702 173.621 146.342 167.659 150.248C166.012 155.378 162.394 164.711 161.901 166.771C160.255 161.64 159.752 157.623 157.994 157.54C156.236 157.456 154.702 158.876 154.088 162.16C153.474 165.444 153.158 168.218 154.19 173.135C155.148 177.718 156.348 181.243 160.469 180.826C160.878 185.548 160.264 188.832 162.524 193.136C164.785 197.45 169.724 205.447 169.314 210.986C163.761 211.802 160.469 210.986 158.618 208.731C156.767 206.477 156.05 204.213 155.325 201.143C151.827 200.113 149.976 195.604 150.386 192.32C146.377 189.138 144.73 183.497 144.526 178.775C144.321 174.053 145.661 166.669 148.739 161.334C151.827 156 156.143 151.074 158.618 148.615C161.083 146.157 163.25 142.771 164.692 138.049C166.133 133.326 169.221 130.367 172.514 128.502C175.602 126.758 179.816 127.268 182.29 128.706C184.969 126.248 188.364 124.912 193.508 124.912C198.652 124.912 203.181 127.473 207.907 131.991C212.641 136.509 215.934 141.323 219.227 148.513C222.519 155.694 224.78 160.824 225.403 168.422C226.026 176.02 227.459 185.149 228.389 190.483C229.161 194.945 228.593 199.306 227.356 201.56C226.119 203.814 223.143 207.618 219.748 206.996C217.069 210.995 213.367 212.229 210.493 212.025C207.814 215.105 201.954 217.053 196.298 214.075C196.503 209.761 196.912 205.456 197.535 202.998C200.103 200.437 202.475 197.051 204.939 193.767C205.553 185.149 205.972 172.838 207.618 167.299C205.256 164.526 203.916 157.039 202.884 150.471C201.851 143.902 200.205 137.538 196.503 134.876C192.764 132.185 189.266 132.287 183.499 133.725Z" fill="#D44B4B"/>
<path d="M222.008 208.175C221.617 208.175 221.236 207.97 221.031 207.599C220.734 207.061 220.929 206.384 221.468 206.087C225.952 203.629 228.575 198.081 227.859 192.598L227.84 192.468C227.133 187.041 225.942 177.959 226.184 169.86C226.407 162.234 223.933 155.592 218.306 143.605C212.734 131.74 202.456 124.29 197.266 123.001C191.573 121.581 184.922 122.769 184.197 123.938C183.871 124.457 183.183 124.615 182.662 124.29C182.141 123.966 181.983 123.279 182.309 122.76C183.992 120.069 192.243 119.457 197.814 120.849C203.581 122.287 214.381 130.005 220.334 142.668C226.119 154.989 228.668 161.854 228.426 169.934C228.193 177.857 229.365 186.828 230.063 192.19L230.082 192.32C230.919 198.684 227.821 205.15 222.547 208.045C222.371 208.137 222.194 208.175 222.008 208.175Z" fill="#475658"/>
<path d="M214.25 212.581C213.785 212.581 213.357 212.294 213.199 211.83C212.995 211.245 213.311 210.614 213.888 210.41C216.669 209.455 218.827 206.959 219.803 203.545C220.752 200.215 221.599 192.487 220.017 184.833C219.896 184.23 220.278 183.646 220.882 183.516C221.487 183.395 222.073 183.776 222.203 184.379C223.989 193.053 222.817 201.105 221.943 204.148C220.761 208.267 218.092 211.31 214.613 212.507C214.492 212.563 214.371 212.581 214.25 212.581Z" fill="#475658"/>
<path d="M182.216 134.727C181.676 134.421 180.997 134.616 180.69 135.145C177.49 140.767 171.007 147.084 166.961 149.459C166.719 149.599 166.542 149.821 166.459 150.081C165.947 151.704 165.194 153.708 164.412 155.823C163.501 158.282 162.506 160.954 161.715 163.468C161.259 159.275 160.459 157.159 159.045 156.427C158.506 156.148 157.632 155.944 156.506 156.575C153.818 158.059 152.339 161.204 152.339 165.435C152.339 169.591 152.599 172.188 153.334 175.38C153.939 177.977 154.748 181.484 157.678 181.484C157.818 181.484 157.966 181.475 158.115 181.456C158.729 181.391 159.166 180.835 159.101 180.222C159.036 179.61 158.478 179.174 157.864 179.239C156.869 179.35 156.292 178.284 155.502 174.87C154.804 171.864 154.562 169.396 154.562 165.425C154.562 162.048 155.632 159.59 157.576 158.514C157.65 158.477 157.901 158.347 158.004 158.403C158.171 158.486 159.008 159.145 159.501 163.839C159.566 164.451 160.115 164.897 160.729 164.832C160.989 164.804 161.213 164.674 161.389 164.498C161.129 165.379 160.896 166.232 160.71 167.04C160.571 167.643 160.952 168.236 161.548 168.375C161.631 168.394 161.715 168.403 161.799 168.403C162.31 168.403 162.766 168.051 162.887 167.541C163.622 164.303 165.147 160.221 166.496 156.612C167.231 154.636 167.928 152.762 168.449 151.166C172.737 148.513 179.23 142.205 182.616 136.249C182.941 135.711 182.746 135.024 182.216 134.727Z" fill="#475658"/>
<path d="M183.964 160.082C183.769 160.082 183.583 160.035 183.406 159.933C180.783 158.412 176.216 157.02 172.923 157.466C172.3 157.54 171.751 157.122 171.668 156.51C171.584 155.898 172.012 155.341 172.626 155.258C176.458 154.747 181.509 156.26 184.532 158.013C185.062 158.319 185.248 159.006 184.932 159.534C184.718 159.887 184.346 160.082 183.964 160.082Z" fill="#475658"/>
<path d="M209.665 208.722C208.102 206.301 207.637 203.749 207.032 200.53C206.865 199.63 206.688 198.684 206.484 197.701C205.767 194.324 205.935 188.461 206.977 179.777C207.153 178.339 207.442 176.539 207.758 174.638C208.772 168.422 210.046 160.685 209.116 154.775C209.023 154.172 208.446 153.755 207.842 153.847C207.237 153.94 206.818 154.515 206.911 155.118C207.321 157.744 207.256 160.815 206.977 163.96C206.158 161.464 205.516 158.152 204.856 154.692C203.944 149.97 203.005 145.09 201.442 141.008C199.786 136.703 196.931 133.549 193.387 132.139C190.559 131.007 187.546 131.072 184.913 132.324C184.355 132.584 184.123 133.252 184.383 133.809C184.643 134.365 185.313 134.607 185.871 134.338C187.936 133.354 190.308 133.308 192.559 134.208C195.517 135.386 197.926 138.086 199.359 141.806C200.856 145.702 201.777 150.489 202.67 155.109C203.014 156.909 203.358 158.662 203.721 160.304C201.321 159.915 198.586 160.063 196.475 160.768C195.889 160.963 195.573 161.594 195.777 162.178C195.936 162.642 196.373 162.939 196.838 162.939C196.959 162.939 197.08 162.921 197.191 162.883C199.228 162.197 202.093 162.132 204.307 162.698C204.753 164.386 205.246 165.889 205.842 167.077C205.991 167.383 206.27 167.578 206.577 167.652C206.27 169.934 205.907 172.188 205.572 174.266C205.256 176.196 204.958 178.024 204.781 179.499C203.693 188.553 203.544 194.472 204.316 198.146C204.521 199.111 204.688 200.038 204.856 200.92C205.47 204.25 206.009 207.126 207.804 209.919C208.018 210.253 208.381 210.429 208.744 210.429C208.948 210.429 209.162 210.373 209.348 210.253C209.851 209.928 210 209.232 209.665 208.722Z" fill="#475658"/>
<path d="M189.582 183.469C189.043 183.469 188.569 183.08 188.485 182.523C187.936 178.979 190.094 173.608 191.434 170.723C191.694 170.166 192.354 169.916 192.912 170.175C193.471 170.435 193.712 171.094 193.461 171.65C191.396 176.103 190.364 180.046 190.689 182.18C190.782 182.792 190.364 183.358 189.759 183.451C189.694 183.46 189.638 183.469 189.582 183.469Z" fill="#475658"/>
<path d="M199.546 174.609C200.712 174.42 201.504 173.324 201.315 172.161C201.126 170.997 200.027 170.208 198.86 170.396C197.694 170.585 196.902 171.681 197.091 172.844C197.281 174.008 198.38 174.798 199.546 174.609Z" fill="#475658"/>
<path d="M172.765 167.754C172.765 168.932 173.723 169.888 174.905 169.888C176.086 169.888 177.044 168.932 177.044 167.754C177.044 166.576 176.086 165.62 174.905 165.62C173.733 165.62 172.765 166.576 172.765 167.754Z" fill="#475658"/>
<path d="M221.747 267.623C221.561 267.623 221.375 267.576 221.208 267.483C220.668 267.187 220.473 266.509 220.771 265.971C221.719 264.274 222.873 261.611 224.222 258.531C227.57 250.859 231.728 241.313 236.751 236.544C237.197 236.117 237.904 236.136 238.332 236.581C238.76 237.027 238.741 237.732 238.295 238.158C233.598 242.611 229.365 252.334 226.277 259.422C224.91 262.557 223.729 265.257 222.733 267.057C222.519 267.419 222.138 267.623 221.747 267.623Z" fill="#475658"/>
<path d="M102.278 313.34C101.711 313.34 101.19 313.173 100.762 312.839C100.194 312.394 99.0504 311.021 100.669 307.793C102.845 303.451 111.961 297.708 117.495 297.189C118.109 297.133 118.658 297.578 118.714 298.191C118.77 298.803 118.323 299.35 117.709 299.406C112.947 299.851 104.51 305.111 102.669 308.785C101.887 310.344 102.064 311.012 102.138 311.086C102.231 311.151 102.864 311.142 103.738 310.39C104.603 309.648 105.171 308.859 105.729 308.099C106.575 306.93 107.45 305.714 109.226 304.833C109.775 304.564 110.445 304.777 110.724 305.334C111.003 305.881 110.78 306.549 110.222 306.828C108.938 307.468 108.324 308.321 107.543 309.407C106.938 310.232 106.259 311.179 105.199 312.088C104.222 312.914 103.19 313.34 102.278 313.34Z" fill="#475658"/>
<path d="M219.934 319.25C219.729 319.25 219.534 319.231 219.338 319.203C217.292 318.888 215.934 317.209 216.036 315.112C216.073 314.352 216.129 313.582 216.194 312.812C216.39 310.316 216.585 307.737 215.841 306.355C215.553 305.817 215.748 305.139 216.297 304.842C216.836 304.555 217.515 304.75 217.813 305.297C218.864 307.254 218.65 310.028 218.427 312.979C218.371 313.73 218.306 314.481 218.278 315.214C218.222 316.365 219.003 316.893 219.692 316.996C220.454 317.107 221.468 316.754 221.831 315.372C222.659 312.199 219.534 302.987 215.618 298.914C215.19 298.469 215.208 297.764 215.646 297.337C216.092 296.91 216.799 296.929 217.227 297.365C221.413 301.716 225.077 311.772 223.989 315.929C223.366 318.276 221.561 319.25 219.934 319.25Z" fill="#475658"/>
<path d="M243.922 239.596C243.392 239.281 242.704 239.448 242.388 239.977C242.071 240.506 242.239 241.183 242.769 241.498C243.429 241.981 245.197 246.359 244.946 252.056C244.871 253.8 244.787 257.557 244.685 262.307C244.453 272.836 244.146 287.262 243.643 290.602C242.862 295.779 240.127 304.973 235.765 313.814C232.705 320.029 230.054 323.434 226.64 327.562C223.794 331.014 218.743 330.55 211.516 328.676C204.828 326.95 155.892 315.957 152.683 315.465C150.069 315.066 149.735 314.38 149.93 312.246C150.246 308.748 152.162 296.994 155.185 292.087C157.101 288.979 159.464 288.329 160.58 288.645C162.636 289.229 208.455 299.221 211.125 299.666C211.739 299.768 212.306 299.36 212.409 298.748C212.437 298.571 212.409 298.395 212.362 298.237C214.446 296.744 215.953 295.176 216.957 293.45C218.501 292.634 220.985 290.417 221.664 288.691C221.924 288.042 221.933 287.448 221.71 286.928C222.892 286.427 224.026 285.852 224.817 285.268C226.798 283.802 227.338 281.39 226.091 279.525C226.017 279.405 225.915 279.321 225.803 279.238C226.324 278.653 226.724 277.985 227.114 277.067C227.589 275.963 227.347 274.794 226.501 274.015C225.598 273.18 223.84 272.716 221.626 273.875C221.533 273.922 221.403 273.987 221.273 274.052C221.366 273.022 221.124 271.983 220.529 271.25C220.148 270.786 218.706 269.395 216.111 271.102C214.083 272.428 209.6 274.738 206.921 276.13C206.121 276.547 205.47 276.881 205.107 277.076C204.474 277.419 203.767 277.828 203.088 278.31C205.916 271.575 208.697 263.346 210.195 257.566C212.66 248.02 212.009 231.479 207.711 222.508C213.376 224.679 222.278 227.944 228.519 230.236C232.109 231.553 234.928 232.583 235.951 232.982C238.202 233.845 241.244 235.208 241.671 237.101C241.783 237.62 242.248 237.973 242.76 237.973C242.843 237.973 242.918 237.964 243.002 237.945C243.606 237.815 243.987 237.212 243.848 236.618C243.206 233.733 239.904 232.11 236.751 230.904C235.718 230.505 232.891 229.475 229.282 228.148C222.026 225.486 211.144 221.497 206.018 219.465C205.265 218.482 204.577 217.674 203.879 216.849C206.214 216.561 208.39 215.643 209.786 214.103C210.195 213.648 210.167 212.943 209.702 212.535C209.246 212.127 208.539 212.155 208.13 212.618C206.093 214.873 200.856 215.698 197.424 213.351C197.359 213.305 197.275 213.286 197.201 213.258C197.303 210.086 197.666 206.894 198.41 204.13C198.475 203.907 198.438 203.684 198.363 203.471C199.721 202.117 200.977 200.623 202.037 198.999C202.372 198.489 202.233 197.793 201.712 197.459C201.2 197.126 200.503 197.265 200.168 197.784C196.438 203.49 190.662 206.913 187.825 208.045C184.457 209.39 179.974 208.833 177.277 207.59C174.709 206.412 173.184 204.863 171.407 203.072L170.691 202.358C170.254 201.922 169.547 201.922 169.11 202.358C168.998 202.469 168.914 202.599 168.868 202.729C168.477 201.95 168.021 201.17 167.501 200.382C165.622 197.571 163.157 192.496 162.441 189.203C161.622 185.399 161.938 180.445 162.171 176.827L162.217 176.141C162.255 175.528 161.789 174.999 161.176 174.962C160.562 174.907 160.031 175.389 159.994 176.001L159.948 176.688C159.706 180.436 159.38 185.575 160.264 189.676C161.045 193.275 163.613 198.582 165.65 201.625C167.175 203.907 168.059 206.087 168.328 208.267C168.403 208.833 168.877 209.241 169.435 209.241C169.482 209.241 169.528 209.241 169.575 209.232C170.189 209.158 170.617 208.601 170.542 207.989C170.393 206.802 170.086 205.633 169.64 204.445L169.826 204.631C171.677 206.495 173.416 208.258 176.346 209.613C178.16 210.448 180.718 211.051 183.369 211.051C185.155 211.051 186.987 210.772 188.652 210.114C190.764 209.269 193.294 207.785 195.74 205.818C194.512 212.303 194.857 220.216 195.796 225.319V225.328C195.796 225.328 195.796 225.328 195.796 225.337C196.652 229.586 196.866 234.373 196.652 239.439C196.335 239.318 195.973 239.337 195.666 239.531C188.178 244.346 170.552 243.966 163.157 238.817C162.915 238.65 162.627 238.594 162.348 238.632C162.124 234.828 162.022 231.247 162.087 228.111C162.348 228.037 162.58 227.861 162.729 227.61C163.957 225.495 166.747 216.988 166.868 213.119C166.868 213.036 166.84 212.962 166.831 212.887C167.817 212.86 168.831 212.73 169.835 212.442C170.431 212.275 170.775 211.654 170.598 211.069C170.431 210.475 169.817 210.132 169.221 210.299C164.617 211.607 159.715 209.121 158.497 206.894C156.432 203.137 156.255 200.697 156.255 194.129C156.255 193.517 155.753 193.016 155.139 193.016C154.525 193.016 154.023 193.517 154.023 194.129C154.023 196.124 154.041 197.766 154.125 199.204C151.241 195.78 151.214 190.882 154.032 183.85C154.264 183.275 153.985 182.635 153.409 182.403C152.832 182.171 152.19 182.449 151.958 183.024C150.758 186.011 150.051 188.693 149.818 191.105C149.837 190.826 149.753 190.548 149.567 190.325C147.4 187.737 145.307 184.499 145.54 176.103C145.754 168.478 149.558 158.987 156.543 148.671C160.338 143.058 161.455 139.663 162.431 136.666C163.11 134.588 163.696 132.798 165.129 130.608C168.412 125.58 176.039 123.418 178.607 125.005C179.128 125.33 179.816 125.172 180.141 124.652C180.467 124.133 180.309 123.446 179.788 123.122C176.012 120.774 167.147 123.446 163.259 129.393C161.669 131.824 161.008 133.846 160.31 135.98C159.38 138.837 158.32 142.075 154.692 147.428C149.66 154.868 143.596 165.871 143.307 176.048C143.056 185.214 145.521 188.962 147.856 191.754C148.079 192.014 148.395 192.153 148.711 192.153C148.963 192.153 149.214 192.069 149.428 191.893C149.651 191.708 149.781 191.448 149.818 191.179C149.428 195.363 150.488 198.703 153.009 201.291C153.232 201.514 153.52 201.625 153.809 201.625C153.995 201.625 154.171 201.56 154.339 201.467C154.655 203.796 155.288 205.67 156.543 207.952C157.492 209.678 159.855 211.449 162.794 212.331C162.785 212.34 162.766 212.349 162.757 212.359C160.729 214.743 157.511 216.7 154.925 218.277L154.078 218.788C153.558 219.103 153.39 219.79 153.706 220.309C153.269 220.17 152.813 220.309 152.525 220.652C152.525 220.55 152.534 220.448 152.506 220.346C152.348 219.753 151.734 219.391 151.139 219.558C149.949 219.873 148.191 220.309 146.181 220.801C137.829 222.86 130.731 224.669 128.546 225.885C125.206 227.731 124.434 230.041 123.755 232.073C123.56 232.657 123.876 233.288 124.462 233.483C124.583 233.52 124.695 233.538 124.816 233.538C125.281 233.538 125.718 233.242 125.876 232.778C126.509 230.885 127.057 229.252 129.634 227.824C131.745 226.655 140.759 224.428 146.721 222.953C148.749 222.452 150.516 222.016 151.716 221.701C151.837 221.673 151.93 221.608 152.032 221.543C144.414 237.416 148.181 256.713 150.004 266.055C151.232 272.345 152.888 278.152 154.218 282.819C154.655 284.359 155.055 285.76 155.39 286.993C151.855 286.372 147.13 286.047 146.898 286.029C146.656 286.01 146.405 286.075 146.2 286.214C145.902 286.409 145.595 286.687 145.279 287.003C145.112 286.854 144.898 286.734 144.656 286.715C138.508 286.131 134.052 286.483 131.383 287.773C131.206 287.856 131.029 287.958 130.852 288.06C130.843 288.023 130.852 287.986 130.843 287.949C130.09 284.934 129.132 278.635 128.611 273.282C128.108 268.142 128.071 250.404 128.546 243.632C128.592 243.02 128.127 242.482 127.513 242.444C126.89 242.407 126.369 242.862 126.323 243.474C125.83 250.488 125.876 268.161 126.388 273.495C126.918 278.941 127.904 285.388 128.676 288.487C128.75 288.765 128.927 288.988 129.15 289.136C127.699 290.175 126.174 291.484 124.76 292.69C123.913 293.413 123.123 294.09 122.462 294.61C120.639 296.039 119.588 297.579 119.43 299.063C119.318 300.083 119.625 301.076 120.323 301.92C122.221 304.23 125.402 304.861 128.536 303.59C130.136 304.332 132.192 304.611 134.154 304.611C135.233 304.611 136.275 304.527 137.205 304.397C137.196 304.472 137.168 304.564 137.159 304.639C137.084 305.102 137.298 305.557 137.708 305.789C137.782 305.826 144.907 309.88 147.139 311.457C147.307 311.578 147.502 311.634 147.698 311.652C147.688 311.782 147.67 311.903 147.66 312.005C147.344 315.446 148.693 317.079 152.302 317.627C153.502 317.812 161.129 319.473 170.542 321.56C168.198 321.968 165.501 322.367 162.85 322.757C161.203 322.998 159.594 323.239 158.125 323.471C143.884 325.716 115.691 329.251 110.203 328.286C103.673 327.136 99.534 324.603 97.8969 320.753C96.9853 318.629 95.1808 312.617 97.9434 302.811C100.306 294.443 112.072 261.574 114.296 257.139C115.207 255.33 116.333 252.111 117.523 248.707C119.197 243.938 121.495 237.407 122.9 236.182C123.365 235.774 123.411 235.078 123.002 234.615C122.593 234.151 121.895 234.104 121.43 234.512C119.709 236.015 117.932 240.821 115.421 247.983C114.249 251.323 113.142 254.468 112.296 256.156C109.849 261.027 97.962 294.545 95.7947 302.227C93.7112 309.611 93.7298 316.69 95.8412 321.644C97.7946 326.227 102.501 329.205 109.812 330.494C110.575 330.633 111.682 330.689 113.049 330.689C117.291 330.689 124.072 330.104 131.262 329.307C131.866 334.4 132.508 341.515 132.508 346.646C132.508 347.258 133.01 347.759 133.624 347.759C134.238 347.759 134.74 347.258 134.74 346.646C134.74 341.423 134.099 334.214 133.485 329.056C143.223 327.934 153.278 326.505 158.469 325.688C159.929 325.457 161.529 325.225 163.166 324.974C166.161 324.529 169.221 324.074 171.789 323.61C172.951 330.735 173.742 335.355 174.216 337.702C174.319 338.203 174.747 338.574 175.258 338.593C175.277 338.593 175.286 338.593 175.305 338.593C175.798 338.593 176.235 338.268 176.374 337.795C177.277 334.697 178.43 330.336 180.076 323.712C193.564 326.737 207.544 329.937 210.892 330.8C213.934 331.589 217.143 332.303 220.101 332.303C221.887 332.303 223.571 332.025 225.077 331.366C224.696 336.218 224.733 340.087 224.808 346.506V346.896C224.817 347.508 225.31 348 225.924 348H225.933C226.547 347.991 227.04 347.49 227.04 346.877V346.497C226.966 339.409 226.919 335.457 227.449 329.854C227.747 329.585 228.026 329.288 228.296 328.963C231.802 324.714 234.528 321.217 237.7 314.779C242.471 305.102 245.029 295.872 245.783 290.918C246.304 287.439 246.62 272.938 246.852 262.344C246.955 257.789 247.038 253.865 247.113 252.139C247.41 246.731 245.857 240.747 243.922 239.596ZM164.719 212.758C164.71 212.785 164.692 212.804 164.692 212.832C164.682 212.804 164.664 212.776 164.654 212.748C164.673 212.748 164.692 212.748 164.719 212.758ZM164.468 213.806C164.543 213.722 164.58 213.62 164.626 213.528C164.44 215.735 163.473 219.363 162.496 222.285C162.766 220.235 163.166 218.584 163.743 217.47C164.022 216.923 163.808 216.255 163.259 215.967C162.915 215.791 162.524 215.828 162.208 216.005C163.036 215.309 163.808 214.585 164.468 213.806ZM198 224.92C198 224.92 198 224.911 198 224.92C197.535 222.396 197.219 219.168 197.182 215.782C198.345 216.366 199.647 216.728 200.986 216.877C201.293 217.238 201.591 217.591 201.879 217.934C202.735 218.936 203.535 219.882 204.446 221.07C204.502 221.144 204.567 221.209 204.642 221.265C204.651 221.45 204.688 221.626 204.791 221.793C209.646 229.521 210.539 247.389 208.046 257.028C205.972 265.062 201.116 278.505 197.489 284.971C197.34 285.24 197.312 285.546 197.387 285.824C195.88 288.079 194.224 290.482 193.192 291.753C192.801 292.226 192.875 292.931 193.359 293.32C193.564 293.487 193.815 293.571 194.057 293.571C194.382 293.571 194.708 293.432 194.922 293.153C197.247 290.287 202.577 281.956 202.633 281.872C203.423 280.639 204.93 279.72 206.158 279.061C206.521 278.867 207.153 278.542 207.944 278.134C210.66 276.733 215.208 274.386 217.329 272.994C217.664 272.772 218.483 272.298 218.79 272.688C219.189 273.18 219.152 274.497 218.585 275.072C218.464 275.193 218.39 275.323 218.334 275.471C217.152 276.009 215.813 276.622 214.492 277.225C210.967 278.82 207.646 280.323 206.567 280.935C204.623 282.021 203.461 283.607 202.428 284.999L202.028 285.537C201.656 286.029 201.758 286.724 202.251 287.095C202.744 287.467 203.442 287.364 203.814 286.873L204.223 286.316C205.163 285.045 206.13 283.728 207.656 282.874C208.651 282.318 212.083 280.759 215.413 279.256C218.538 277.837 221.496 276.501 222.659 275.889C223.766 275.313 224.64 275.378 224.984 275.694C225.077 275.777 225.189 275.926 225.059 276.232C224.398 277.781 223.877 278.282 221.589 279.581C220.706 280.082 217.273 281.687 214.52 282.967C211.897 284.192 210.26 284.952 209.776 285.231C208.576 285.899 207.237 287.179 206.093 288.747C205.73 289.248 205.842 289.944 206.344 290.305C206.539 290.445 206.772 290.519 206.995 290.519C207.339 290.519 207.683 290.361 207.897 290.064C208.846 288.765 209.953 287.689 210.865 287.188C211.311 286.938 213.423 285.954 215.478 284.999C218.417 283.626 221.747 282.077 222.705 281.529C223.273 281.204 223.747 280.917 224.175 280.639C224.203 280.694 224.203 280.75 224.24 280.796C224.91 281.798 224.352 282.884 223.496 283.514C221.906 284.683 217.99 286.066 216.343 286.483C215.05 286.808 213.497 288.116 211.599 289.795C211.181 290.166 210.799 290.5 210.483 290.76C210.009 291.15 209.934 291.855 210.325 292.328C210.548 292.597 210.865 292.736 211.19 292.736C211.441 292.736 211.692 292.652 211.897 292.485C212.232 292.216 212.632 291.855 213.078 291.465C214.176 290.491 216.018 288.867 216.883 288.645C217.413 288.515 218.445 288.199 219.636 287.773C219.524 288.608 217.032 291.066 215.729 291.604C215.497 291.706 215.301 291.882 215.171 292.105C214.241 293.831 212.669 295.417 210.362 296.948C210.251 297.022 210.158 297.124 210.083 297.226C206.549 296.502 197.349 294.517 187.862 292.458C188.057 292.318 188.206 292.114 188.271 291.864L188.504 291.038C193.796 272.159 201.768 243.706 198 224.92ZM180.393 245.218C186.532 245.218 192.568 244.022 196.549 241.591C195.47 257.863 190.206 276.696 186.364 290.389L186.132 291.215C186.048 291.511 186.094 291.808 186.234 292.049C179.518 290.584 172.812 289.109 168.021 288.051C168.412 287.81 168.626 287.355 168.533 286.891C167.259 280.676 163.743 258.884 162.515 241.044C166.915 243.808 173.705 245.218 180.393 245.218ZM152.209 265.647C150.404 256.407 146.637 237.184 154.376 221.858C154.553 221.506 154.506 221.107 154.32 220.792C154.432 220.829 154.553 220.856 154.674 220.856C154.869 220.856 155.074 220.801 155.26 220.689L156.097 220.179C157.92 219.066 160.041 217.767 161.92 216.236C161.864 216.301 161.799 216.357 161.762 216.431C156.032 227.517 164.887 280.212 166.347 287.327C166.375 287.467 166.431 287.596 166.505 287.708C163.557 287.049 161.585 286.594 161.194 286.483C160.171 286.196 158.906 286.288 157.604 286.864C157.613 286.743 157.613 286.622 157.585 286.492C157.25 285.231 156.841 283.793 156.385 282.206C155.064 277.596 153.427 271.844 152.209 265.647ZM137.512 302.134C134.899 302.588 131.169 302.57 129.169 301.419C128.853 301.243 128.462 301.225 128.136 301.382C125.29 302.727 123.095 301.772 122.09 300.538C121.774 300.148 121.644 299.768 121.69 299.332C121.783 298.469 122.565 297.421 123.885 296.382C124.583 295.835 125.392 295.139 126.257 294.397C128.211 292.717 130.638 290.639 132.387 289.786C134.545 288.738 138.48 288.431 143.763 288.877C141.391 292.244 138.963 297.718 137.763 302.124C137.689 302.134 137.605 302.124 137.512 302.134ZM148.032 309.37C145.865 307.904 141.289 305.269 139.54 304.277C140.693 298.72 144.675 290.38 147.177 288.301C148.349 288.394 151.827 288.673 154.609 289.136C154.144 289.656 153.697 290.24 153.278 290.918C150.451 295.51 148.739 304.546 148.032 309.37ZM175.584 332.516C175.165 330.114 174.654 327.015 174.03 323.211C174.523 323.109 174.988 323.007 175.416 322.896C175.537 322.868 175.639 322.803 175.732 322.748C176.467 322.915 177.211 323.082 177.956 323.249C177.016 327.015 176.244 330.049 175.584 332.516Z" fill="#475658"/>
<path d="M190.283 195.734C190.213 195.734 190.137 195.717 190.066 195.682C186.668 194.06 181.09 193.602 177.891 194.681C177.51 194.81 177.135 194.457 177.047 193.904C176.959 193.343 177.199 192.791 177.574 192.662C181.037 191.496 186.832 191.971 190.494 193.714C190.863 193.887 191.068 194.474 190.945 195.018C190.858 195.458 190.582 195.734 190.283 195.734Z" fill="#475658"/>
<rect x="52.6342" y="28.5" width="280.739" height="67" rx="33.5" fill="white" stroke="#E0E0E0"/>
<path d="M90.4995 55H89.2815C89.1462 55 89.0295 54.965 88.9315 54.895C88.8382 54.8203 88.7495 54.713 88.6655 54.573L86.0125 50.898C85.8912 50.716 85.7605 50.59 85.6205 50.52C85.4805 50.4453 85.2892 50.408 85.0465 50.408H83.8425V55H82.4915V44.969H83.8425V49.365H84.8855C85.0955 49.365 85.2728 49.3323 85.4175 49.267C85.5668 49.2017 85.7138 49.0733 85.8585 48.882L88.4835 45.354C88.5535 45.242 88.6375 45.151 88.7355 45.081C88.8382 45.0063 88.9572 44.969 89.0925 44.969H90.2335L87.2025 49.092C86.9738 49.414 86.6798 49.6357 86.3205 49.757C86.5678 49.8223 86.7755 49.9273 86.9435 50.072C87.1162 50.212 87.2795 50.408 87.4335 50.66L90.4995 55ZM95.3237 51.808C94.7497 51.8267 94.2597 51.8733 93.8537 51.948C93.4524 52.018 93.1234 52.1113 92.8667 52.228C92.6147 52.3447 92.4304 52.4823 92.3137 52.641C92.2017 52.7997 92.1457 52.977 92.1457 53.173C92.1457 53.3597 92.176 53.5207 92.2367 53.656C92.2974 53.7913 92.379 53.9033 92.4817 53.992C92.589 54.076 92.7127 54.139 92.8527 54.181C92.9974 54.2183 93.1514 54.237 93.3147 54.237C93.534 54.237 93.7347 54.216 93.9167 54.174C94.0987 54.1273 94.269 54.062 94.4277 53.978C94.591 53.894 94.745 53.7937 94.8897 53.677C95.039 53.5603 95.1837 53.4273 95.3237 53.278V51.808ZM91.2987 48.91C91.6907 48.532 92.113 48.2497 92.5657 48.063C93.0184 47.8763 93.52 47.783 94.0707 47.783C94.4674 47.783 94.8197 47.8483 95.1277 47.979C95.4357 48.1097 95.6947 48.2917 95.9047 48.525C96.1147 48.7583 96.2734 49.0407 96.3807 49.372C96.488 49.7033 96.5417 50.0673 96.5417 50.464V55H95.9887C95.8674 55 95.774 54.9813 95.7087 54.944C95.6434 54.902 95.592 54.8227 95.5547 54.706L95.4147 54.034C95.228 54.2067 95.046 54.3607 94.8687 54.496C94.6914 54.6267 94.5047 54.7387 94.3087 54.832C94.1127 54.9207 93.9027 54.9883 93.6787 55.035C93.4594 55.0863 93.2144 55.112 92.9437 55.112C92.6684 55.112 92.4094 55.0747 92.1667 55C91.924 54.9207 91.7117 54.804 91.5297 54.65C91.3524 54.496 91.21 54.3023 91.1027 54.069C91 53.831 90.9487 53.551 90.9487 53.229C90.9487 52.949 91.0257 52.6807 91.1797 52.424C91.3337 52.1627 91.5834 51.9317 91.9287 51.731C92.274 51.5303 92.7244 51.367 93.2797 51.241C93.835 51.1103 94.5164 51.0357 95.3237 51.017V50.464C95.3237 49.9133 95.2047 49.498 94.9667 49.218C94.7287 48.9333 94.381 48.791 93.9237 48.791C93.6157 48.791 93.3567 48.8307 93.1467 48.91C92.9414 48.9847 92.7617 49.071 92.6077 49.169C92.4584 49.2623 92.3277 49.3487 92.2157 49.428C92.1084 49.5027 92.001 49.54 91.8937 49.54C91.8097 49.54 91.7374 49.519 91.6767 49.477C91.616 49.4303 91.5647 49.3743 91.5227 49.309L91.2987 48.91ZM102.745 48.259C102.81 48.1563 102.896 48.0723 103.004 48.007C103.111 47.9417 103.225 47.909 103.347 47.909H104.32L102.479 50.611C102.367 50.7837 102.25 50.926 102.129 51.038C102.007 51.1453 101.858 51.2293 101.681 51.29C101.905 51.3507 102.094 51.4463 102.248 51.577C102.402 51.703 102.539 51.8663 102.661 52.067L104.523 55H103.655C103.431 55 103.258 54.9627 103.137 54.888C103.015 54.8133 102.91 54.706 102.822 54.566L101.443 52.361C101.223 51.997 100.894 51.815 100.456 51.815H99.6927V55.007H98.4397V47.909H99.6927V50.975H100.365C100.738 50.975 101.03 50.8163 101.24 50.499L102.745 48.259ZM111.769 47.909V55H110.523V50.184C110.523 50.0907 110.527 49.9903 110.537 49.883C110.546 49.7757 110.558 49.6683 110.572 49.561C110.53 49.6543 110.488 49.7407 110.446 49.82C110.404 49.8993 110.359 49.9717 110.313 50.037L106.89 54.692C106.838 54.7667 106.773 54.839 106.694 54.909C106.619 54.9743 106.535 55.007 106.442 55.007H105.686V47.916H106.939V52.732C106.939 52.8207 106.934 52.9187 106.925 53.026C106.915 53.1287 106.904 53.2337 106.89 53.341C106.932 53.2523 106.974 53.1707 107.016 53.096C107.058 53.0167 107.1 52.9443 107.142 52.879L110.565 48.224C110.616 48.1493 110.681 48.0793 110.761 48.014C110.84 47.944 110.926 47.909 111.02 47.909H111.769ZM118.485 50.681C118.485 50.3917 118.443 50.128 118.359 49.89C118.279 49.6473 118.16 49.4397 118.002 49.267C117.848 49.0897 117.659 48.9543 117.435 48.861C117.211 48.763 116.956 48.714 116.672 48.714C116.074 48.714 115.601 48.889 115.251 49.239C114.905 49.5843 114.691 50.065 114.607 50.681H118.485ZM119.493 54.006C119.339 54.1927 119.154 54.356 118.94 54.496C118.725 54.6313 118.494 54.7433 118.247 54.832C118.004 54.9207 117.752 54.986 117.491 55.028C117.229 55.0747 116.97 55.098 116.714 55.098C116.224 55.098 115.771 55.0163 115.356 54.853C114.945 54.685 114.588 54.4423 114.285 54.125C113.986 53.803 113.753 53.4063 113.585 52.935C113.417 52.4637 113.333 51.9223 113.333 51.311C113.333 50.8163 113.407 50.3543 113.557 49.925C113.711 49.4957 113.93 49.1247 114.215 48.812C114.499 48.4947 114.847 48.2473 115.258 48.07C115.668 47.888 116.13 47.797 116.644 47.797C117.068 47.797 117.46 47.8693 117.82 48.014C118.184 48.154 118.496 48.3593 118.758 48.63C119.024 48.896 119.231 49.2273 119.381 49.624C119.53 50.016 119.605 50.464 119.605 50.968C119.605 51.164 119.584 51.2947 119.542 51.36C119.5 51.4253 119.42 51.458 119.304 51.458H114.565C114.579 51.906 114.639 52.2957 114.747 52.627C114.859 52.9583 115.013 53.236 115.209 53.46C115.405 53.6793 115.638 53.845 115.909 53.957C116.179 54.0643 116.483 54.118 116.819 54.118C117.131 54.118 117.4 54.083 117.624 54.013C117.852 53.9383 118.048 53.859 118.212 53.775C118.375 53.691 118.51 53.614 118.618 53.544C118.73 53.4693 118.825 53.432 118.905 53.432C119.007 53.432 119.087 53.4717 119.143 53.551L119.493 54.006ZM129.603 54.09V48.889H127.356C127.309 49.617 127.244 50.261 127.16 50.821C127.076 51.381 126.978 51.8733 126.866 52.298C126.759 52.718 126.637 53.075 126.502 53.369C126.371 53.663 126.234 53.9033 126.089 54.09H129.603ZM132.109 54.055V57.058C132.109 57.1793 132.074 57.2727 132.004 57.338C131.939 57.408 131.852 57.443 131.745 57.443H130.982V55H125.018V57.086C125.018 57.1747 124.99 57.2563 124.934 57.331C124.883 57.4057 124.796 57.443 124.675 57.443H123.891V54.09H124.122C124.285 54.09 124.446 54.062 124.605 54.006C124.768 53.95 124.925 53.845 125.074 53.691C125.223 53.5323 125.363 53.3107 125.494 53.026C125.629 52.7413 125.751 52.3703 125.858 51.913C125.965 51.4557 126.059 50.9003 126.138 50.247C126.217 49.589 126.28 48.8097 126.327 47.909H130.814V54.055H132.109ZM136.237 47.797C136.755 47.797 137.222 47.8833 137.637 48.056C138.053 48.2287 138.407 48.4737 138.701 48.791C138.995 49.1083 139.219 49.4933 139.373 49.946C139.532 50.394 139.611 50.8957 139.611 51.451C139.611 52.011 139.532 52.515 139.373 52.963C139.219 53.411 138.995 53.7937 138.701 54.111C138.407 54.4283 138.053 54.6733 137.637 54.846C137.222 55.014 136.755 55.098 136.237 55.098C135.715 55.098 135.243 55.014 134.823 54.846C134.408 54.6733 134.053 54.4283 133.759 54.111C133.465 53.7937 133.239 53.411 133.08 52.963C132.926 52.515 132.849 52.011 132.849 51.451C132.849 50.8957 132.926 50.394 133.08 49.946C133.239 49.4933 133.465 49.1083 133.759 48.791C134.053 48.4737 134.408 48.2287 134.823 48.056C135.243 47.8833 135.715 47.797 136.237 47.797ZM136.237 54.125C136.937 54.125 137.46 53.8917 137.805 53.425C138.151 52.9537 138.323 52.298 138.323 51.458C138.323 50.6133 138.151 49.9553 137.805 49.484C137.46 49.0127 136.937 48.777 136.237 48.777C135.883 48.777 135.572 48.8377 135.306 48.959C135.045 49.0803 134.826 49.2553 134.648 49.484C134.476 49.7127 134.345 49.995 134.256 50.331C134.172 50.6623 134.13 51.038 134.13 51.458C134.13 52.298 134.303 52.9537 134.648 53.425C134.998 53.8917 135.528 54.125 136.237 54.125ZM145.497 48.259C145.562 48.1563 145.648 48.0723 145.756 48.007C145.863 47.9417 145.977 47.909 146.099 47.909H147.072L145.231 50.611C145.119 50.7837 145.002 50.926 144.881 51.038C144.759 51.1453 144.61 51.2293 144.433 51.29C144.657 51.3507 144.846 51.4463 145 51.577C145.154 51.703 145.291 51.8663 145.413 52.067L147.275 55H146.407C146.183 55 146.01 54.9627 145.889 54.888C145.767 54.8133 145.662 54.706 145.574 54.566L144.195 52.361C143.975 51.997 143.646 51.815 143.208 51.815H142.445V55.007H141.192V47.909H142.445V50.975H143.117C143.49 50.975 143.782 50.8163 143.992 50.499L145.497 48.259ZM154.556 47.909L150.601 57.093C150.559 57.1863 150.505 57.261 150.44 57.317C150.379 57.373 150.283 57.401 150.153 57.401H149.229L150.524 54.587L147.598 47.909H148.676C148.783 47.909 148.867 47.937 148.928 47.993C148.993 48.0443 149.037 48.1027 149.061 48.168L150.958 52.634C151.032 52.83 151.095 53.0353 151.147 53.25C151.212 53.0307 151.282 52.823 151.357 52.627L153.198 48.168C153.226 48.0933 153.272 48.0327 153.338 47.986C153.408 47.9347 153.485 47.909 153.569 47.909H154.556ZM163.559 47.888V55H162.432V50.289C162.432 50.1583 162.439 50.0137 162.453 49.855C162.472 49.6917 162.495 49.54 162.523 49.4L160.059 53.719C160.022 53.789 159.973 53.845 159.912 53.887C159.852 53.929 159.782 53.95 159.702 53.95H159.562C159.483 53.95 159.411 53.929 159.345 53.887C159.285 53.845 159.236 53.789 159.198 53.719L156.692 49.386C156.716 49.526 156.737 49.68 156.755 49.848C156.774 50.0113 156.783 50.1583 156.783 50.289V55H155.656V47.888H156.657C156.746 47.888 156.832 47.909 156.916 47.951C157 47.9883 157.073 48.0607 157.133 48.168L159.345 51.864C159.453 52.0787 159.548 52.305 159.632 52.543C159.712 52.2957 159.805 52.0693 159.912 51.864L162.082 48.168C162.143 48.056 162.215 47.9813 162.299 47.944C162.383 47.9067 162.47 47.888 162.558 47.888H163.559ZM170.274 50.681C170.274 50.3917 170.232 50.128 170.148 49.89C170.068 49.6473 169.949 49.4397 169.791 49.267C169.637 49.0897 169.448 48.9543 169.224 48.861C169 48.763 168.745 48.714 168.461 48.714C167.863 48.714 167.39 48.889 167.04 49.239C166.694 49.5843 166.48 50.065 166.396 50.681H170.274ZM171.282 54.006C171.128 54.1927 170.943 54.356 170.729 54.496C170.514 54.6313 170.283 54.7433 170.036 54.832C169.793 54.9207 169.541 54.986 169.28 55.028C169.018 55.0747 168.759 55.098 168.503 55.098C168.013 55.098 167.56 55.0163 167.145 54.853C166.734 54.685 166.377 54.4423 166.074 54.125C165.775 53.803 165.542 53.4063 165.374 52.935C165.206 52.4637 165.122 51.9223 165.122 51.311C165.122 50.8163 165.196 50.3543 165.346 49.925C165.5 49.4957 165.719 49.1247 166.004 48.812C166.288 48.4947 166.636 48.2473 167.047 48.07C167.457 47.888 167.919 47.797 168.433 47.797C168.857 47.797 169.249 47.8693 169.609 48.014C169.973 48.154 170.285 48.3593 170.547 48.63C170.813 48.896 171.02 49.2273 171.17 49.624C171.319 50.016 171.394 50.464 171.394 50.968C171.394 51.164 171.373 51.2947 171.331 51.36C171.289 51.4253 171.209 51.458 171.093 51.458H166.354C166.368 51.906 166.428 52.2957 166.536 52.627C166.648 52.9583 166.802 53.236 166.998 53.46C167.194 53.6793 167.427 53.845 167.698 53.957C167.968 54.0643 168.272 54.118 168.608 54.118C168.92 54.118 169.189 54.083 169.413 54.013C169.641 53.9383 169.837 53.859 170.001 53.775C170.164 53.691 170.299 53.614 170.407 53.544C170.519 53.4693 170.614 53.432 170.694 53.432C170.796 53.432 170.876 53.4717 170.932 53.551L171.282 54.006ZM178.832 47.909V55H177.579V51.682H174.177V55H172.924V47.909H174.177V50.737H177.579V47.909H178.832ZM186.707 48.861H183.984V55H182.738V48.861H180.015V47.909H186.707V48.861ZM190.618 54.09C190.87 54.09 191.087 54.0597 191.269 53.999C191.455 53.9337 191.609 53.845 191.731 53.733C191.852 53.6163 191.943 53.481 192.004 53.327C192.064 53.173 192.095 53.005 192.095 52.823C192.095 52.655 192.069 52.4987 192.018 52.354C191.966 52.2047 191.88 52.074 191.759 51.962C191.642 51.85 191.488 51.7613 191.297 51.696C191.105 51.6307 190.872 51.598 190.597 51.598H189.085V54.09H190.618ZM190.597 50.688C191.087 50.688 191.497 50.7463 191.829 50.863C192.165 50.9797 192.433 51.136 192.634 51.332C192.839 51.528 192.986 51.7543 193.075 52.011C193.163 52.2677 193.208 52.5337 193.208 52.809C193.208 53.1263 193.152 53.4203 193.04 53.691C192.928 53.957 192.762 54.188 192.543 54.384C192.323 54.5753 192.053 54.727 191.731 54.839C191.409 54.9463 191.038 55 190.618 55H187.895V47.909H189.085V50.688H190.597ZM196.015 47.909V55H194.769V47.909H196.015ZM209.483 47.888V55H208.356V50.289C208.356 50.1583 208.363 50.0137 208.377 49.855C208.396 49.6917 208.419 49.54 208.447 49.4L205.983 53.719C205.946 53.789 205.897 53.845 205.836 53.887C205.776 53.929 205.706 53.95 205.626 53.95H205.486C205.407 53.95 205.335 53.929 205.269 53.887C205.209 53.845 205.16 53.789 205.122 53.719L202.616 49.386C202.64 49.526 202.661 49.68 202.679 49.848C202.698 50.0113 202.707 50.1583 202.707 50.289V55H201.58V47.888H202.581C202.67 47.888 202.756 47.909 202.84 47.951C202.924 47.9883 202.997 48.0607 203.057 48.168L205.269 51.864C205.377 52.0787 205.472 52.305 205.556 52.543C205.636 52.2957 205.729 52.0693 205.836 51.864L208.006 48.168C208.067 48.056 208.139 47.9813 208.223 47.944C208.307 47.9067 208.394 47.888 208.482 47.888H209.483ZM217.359 47.909V55H216.106V51.682H212.704V55H211.451V47.909H212.704V50.737H216.106V47.909H217.359ZM224.086 50.681C224.086 50.3917 224.044 50.128 223.96 49.89C223.881 49.6473 223.762 49.4397 223.603 49.267C223.449 49.0897 223.26 48.9543 223.036 48.861C222.812 48.763 222.558 48.714 222.273 48.714C221.676 48.714 221.202 48.889 220.852 49.239C220.507 49.5843 220.292 50.065 220.208 50.681H224.086ZM225.094 54.006C224.94 54.1927 224.756 54.356 224.541 54.496C224.326 54.6313 224.095 54.7433 223.848 54.832C223.605 54.9207 223.353 54.986 223.092 55.028C222.831 55.0747 222.572 55.098 222.315 55.098C221.825 55.098 221.372 55.0163 220.957 54.853C220.546 54.685 220.189 54.4423 219.886 54.125C219.587 53.803 219.354 53.4063 219.186 52.935C219.018 52.4637 218.934 51.9223 218.934 51.311C218.934 50.8163 219.009 50.3543 219.158 49.925C219.312 49.4957 219.531 49.1247 219.816 48.812C220.101 48.4947 220.448 48.2473 220.859 48.07C221.27 47.888 221.732 47.797 222.245 47.797C222.67 47.797 223.062 47.8693 223.421 48.014C223.785 48.154 224.098 48.3593 224.359 48.63C224.625 48.896 224.833 49.2273 224.982 49.624C225.131 50.016 225.206 50.464 225.206 50.968C225.206 51.164 225.185 51.2947 225.143 51.36C225.101 51.4253 225.022 51.458 224.905 51.458H220.166C220.18 51.906 220.241 52.2957 220.348 52.627C220.46 52.9583 220.614 53.236 220.81 53.46C221.006 53.6793 221.239 53.845 221.51 53.957C221.781 54.0643 222.084 54.118 222.42 54.118C222.733 54.118 223.001 54.083 223.225 54.013C223.454 53.9383 223.65 53.859 223.813 53.775C223.976 53.691 224.112 53.614 224.219 53.544C224.331 53.4693 224.427 53.432 224.506 53.432C224.609 53.432 224.688 53.4717 224.744 53.551L225.094 54.006ZM236.227 47.909V55H234.974V51.682H231.572V55H230.319V47.909H231.572V50.737H234.974V47.909H236.227ZM244.325 47.909L240.37 57.093C240.328 57.1863 240.275 57.261 240.209 57.317C240.149 57.373 240.053 57.401 239.922 57.401H238.998L240.293 54.587L237.367 47.909H238.445C238.553 47.909 238.637 47.937 238.697 47.993C238.763 48.0443 238.807 48.1027 238.83 48.168L240.727 52.634C240.802 52.83 240.865 53.0353 240.916 53.25C240.982 53.0307 241.052 52.823 241.126 52.627L242.967 48.168C242.995 48.0933 243.042 48.0327 243.107 47.986C243.177 47.9347 243.254 47.909 243.338 47.909H244.325ZM255.296 55H254.428C254.204 55 254.031 54.965 253.91 54.895C253.793 54.825 253.702 54.7153 253.637 54.566L252.258 52.361C252.029 51.997 251.7 51.815 251.271 51.815H250.557V55.007H249.346V51.815H248.639C248.429 51.815 248.238 51.8617 248.065 51.955C247.897 52.0483 247.759 52.1837 247.652 52.361L246.273 54.566C246.203 54.7153 246.107 54.825 245.986 54.895C245.869 54.965 245.699 55 245.475 55H244.614L246.476 52.067C246.597 51.8617 246.735 51.696 246.889 51.57C247.043 51.444 247.232 51.3483 247.456 51.283C247.279 51.227 247.127 51.1453 247.001 51.038C246.88 50.926 246.765 50.7837 246.658 50.611L244.81 47.909H245.79C245.911 47.909 246.021 47.9417 246.119 48.007C246.217 48.0677 246.294 48.1517 246.35 48.259L247.855 50.499C247.958 50.653 248.081 50.772 248.226 50.856C248.371 50.9353 248.541 50.975 248.737 50.975H249.346V47.909H250.557V50.975H251.152C251.549 50.975 251.847 50.8163 252.048 50.499L253.553 48.259C253.609 48.1517 253.686 48.0677 253.784 48.007C253.887 47.9417 253.999 47.909 254.12 47.909H255.1L253.252 50.611C253.145 50.7837 253.028 50.926 252.902 51.038C252.781 51.1453 252.631 51.227 252.454 51.283C252.678 51.3483 252.867 51.444 253.021 51.57C253.175 51.696 253.313 51.8617 253.434 52.067L255.296 55ZM262.367 47.909V55H261.114V51.682H257.712V55H256.459V47.909H257.712V50.737H261.114V47.909H262.367ZM267.071 54.09C267.323 54.09 267.54 54.0597 267.722 53.999C267.909 53.9337 268.063 53.845 268.184 53.733C268.305 53.6163 268.396 53.481 268.457 53.327C268.518 53.173 268.548 53.005 268.548 52.823C268.548 52.655 268.522 52.4987 268.471 52.354C268.42 52.2047 268.333 52.074 268.212 51.962C268.095 51.85 267.941 51.7613 267.75 51.696C267.559 51.6307 267.325 51.598 267.05 51.598H265.538V54.09H267.071ZM267.05 50.688C267.54 50.688 267.951 50.7463 268.282 50.863C268.618 50.9797 268.886 51.136 269.087 51.332C269.292 51.528 269.439 51.7543 269.528 52.011C269.617 52.2677 269.661 52.5337 269.661 52.809C269.661 53.1263 269.605 53.4203 269.493 53.691C269.381 53.957 269.215 54.188 268.996 54.384C268.777 54.5753 268.506 54.727 268.184 54.839C267.862 54.9463 267.491 55 267.071 55H264.348V47.909H265.538V50.688H267.05ZM272.468 47.909V55H271.222V47.909H272.468ZM282.919 54.09V48.889H280.672C280.626 49.617 280.56 50.261 280.476 50.821C280.392 51.381 280.294 51.8733 280.182 52.298C280.075 52.718 279.954 53.075 279.818 53.369C279.688 53.663 279.55 53.9033 279.405 54.09H282.919ZM285.425 54.055V57.058C285.425 57.1793 285.39 57.2727 285.32 57.338C285.255 57.408 285.169 57.443 285.061 57.443H284.298V55H278.334V57.086C278.334 57.1747 278.306 57.2563 278.25 57.331C278.199 57.4057 278.113 57.443 277.991 57.443H277.207V54.09H277.438C277.602 54.09 277.763 54.062 277.921 54.006C278.085 53.95 278.241 53.845 278.39 53.691C278.54 53.5323 278.68 53.3107 278.81 53.026C278.946 52.7413 279.067 52.3703 279.174 51.913C279.282 51.4557 279.375 50.9003 279.454 50.247C279.534 49.589 279.597 48.8097 279.643 47.909H284.13V54.055H285.425ZM292.904 55H291.658V48.889H289.418C289.362 49.7897 289.278 50.569 289.166 51.227C289.054 51.8803 288.918 52.438 288.76 52.9C288.606 53.3573 288.431 53.7307 288.235 54.02C288.043 54.3047 287.84 54.5263 287.626 54.685C287.416 54.8437 287.196 54.951 286.968 55.007C286.744 55.063 286.52 55.091 286.296 55.091C285.899 55.091 285.701 55.028 285.701 54.902V54.111H286.065C286.223 54.111 286.384 54.083 286.548 54.027C286.711 53.971 286.87 53.8637 287.024 53.705C287.182 53.5463 287.334 53.3247 287.479 53.04C287.623 52.7507 287.754 52.3773 287.871 51.92C287.992 51.458 288.095 50.9003 288.179 50.247C288.267 49.589 288.335 48.8097 288.382 47.909H292.904V55ZM298.608 51.22V48.749H297.418C297.152 48.749 296.928 48.7887 296.746 48.868C296.564 48.9427 296.417 49.0407 296.305 49.162C296.198 49.2787 296.121 49.4117 296.074 49.561C296.028 49.7057 296.004 49.8503 296.004 49.995C296.004 50.3777 296.144 50.6787 296.424 50.898C296.704 51.1127 297.087 51.22 297.572 51.22H298.608ZM299.798 47.909V55H298.608V52.011H298.062C297.932 52.011 297.822 52.0227 297.733 52.046C297.649 52.0647 297.575 52.0927 297.509 52.13C297.449 52.1673 297.395 52.2163 297.348 52.277C297.302 52.333 297.253 52.3983 297.201 52.473L295.647 54.566C295.568 54.7153 295.47 54.825 295.353 54.895C295.241 54.965 295.076 55 294.856 55H293.988L296.046 52.326C296.214 52.046 296.436 51.8593 296.711 51.766C296.352 51.7193 296.049 51.6353 295.801 51.514C295.554 51.3927 295.351 51.2503 295.192 51.087C295.038 50.919 294.926 50.7347 294.856 50.534C294.786 50.3333 294.751 50.1303 294.751 49.925C294.751 49.6823 294.798 49.4397 294.891 49.197C294.989 48.9543 295.143 48.7397 295.353 48.553C295.563 48.3617 295.834 48.2077 296.165 48.091C296.501 47.9697 296.907 47.909 297.383 47.909H299.798ZM88.1055 76H86.8525V69.861H83.4505V76H82.1975V68.909H88.1055V76ZM91.3392 74.292C91.5678 74.6 91.8175 74.817 92.0882 74.943C92.3588 75.069 92.6622 75.132 92.9982 75.132C93.6608 75.132 94.1695 74.8963 94.5242 74.425C94.8788 73.9537 95.0562 73.2817 95.0562 72.409C95.0562 71.947 95.0142 71.5503 94.9302 71.219C94.8508 70.8877 94.7342 70.617 94.5802 70.407C94.4262 70.1923 94.2372 70.036 94.0132 69.938C93.7892 69.84 93.5348 69.791 93.2502 69.791C92.8442 69.791 92.4872 69.8843 92.1792 70.071C91.8758 70.2577 91.5958 70.5213 91.3392 70.862V74.292ZM91.2762 70.008C91.5748 69.6393 91.9202 69.343 92.3122 69.119C92.7042 68.895 93.1522 68.783 93.6562 68.783C94.0668 68.783 94.4378 68.8623 94.7692 69.021C95.1005 69.175 95.3828 69.406 95.6162 69.714C95.8495 70.0173 96.0292 70.3953 96.1552 70.848C96.2812 71.3007 96.3442 71.821 96.3442 72.409C96.3442 72.9317 96.2742 73.4193 96.1342 73.872C95.9942 74.32 95.7912 74.7097 95.5252 75.041C95.2638 75.3677 94.9418 75.6267 94.5592 75.818C94.1812 76.0047 93.7542 76.098 93.2782 76.098C92.8442 76.098 92.4708 76.0257 92.1582 75.881C91.8502 75.7317 91.5772 75.5263 91.3392 75.265V78.401H90.0862V68.909H90.8352C91.0125 68.909 91.1222 68.9953 91.1642 69.168L91.2762 70.008ZM100.909 68.797C101.427 68.797 101.894 68.8833 102.309 69.056C102.725 69.2287 103.079 69.4737 103.373 69.791C103.667 70.1083 103.891 70.4933 104.045 70.946C104.204 71.394 104.283 71.8957 104.283 72.451C104.283 73.011 104.204 73.515 104.045 73.963C103.891 74.411 103.667 74.7937 103.373 75.111C103.079 75.4283 102.725 75.6733 102.309 75.846C101.894 76.014 101.427 76.098 100.909 76.098C100.387 76.098 99.9152 76.014 99.4952 75.846C99.0798 75.6733 98.7252 75.4283 98.4312 75.111C98.1372 74.7937 97.9108 74.411 97.7522 73.963C97.5982 73.515 97.5212 73.011 97.5212 72.451C97.5212 71.8957 97.5982 71.394 97.7522 70.946C97.9108 70.4933 98.1372 70.1083 98.4312 69.791C98.7252 69.4737 99.0798 69.2287 99.4952 69.056C99.9152 68.8833 100.387 68.797 100.909 68.797ZM100.909 75.125C101.609 75.125 102.132 74.8917 102.477 74.425C102.823 73.9537 102.995 73.298 102.995 72.458C102.995 71.6133 102.823 70.9553 102.477 70.484C102.132 70.0127 101.609 69.777 100.909 69.777C100.554 69.777 100.244 69.8377 99.9782 69.959C99.7168 70.0803 99.4975 70.2553 99.3202 70.484C99.1475 70.7127 99.0168 70.995 98.9282 71.331C98.8442 71.6623 98.8022 72.038 98.8022 72.458C98.8022 73.298 98.9748 73.9537 99.3202 74.425C99.6702 74.8917 100.2 75.125 100.909 75.125ZM110.49 75.09V69.889H108.243C108.196 70.617 108.131 71.261 108.047 71.821C107.963 72.381 107.865 72.8733 107.753 73.298C107.645 73.718 107.524 74.075 107.389 74.369C107.258 74.663 107.12 74.9033 106.976 75.09H110.49ZM112.996 75.055V78.058C112.996 78.1793 112.961 78.2727 112.891 78.338C112.825 78.408 112.739 78.443 112.632 78.443H111.869V76H105.905V78.086C105.905 78.1747 105.877 78.2563 105.821 78.331C105.769 78.4057 105.683 78.443 105.562 78.443H104.778V75.09H105.009C105.172 75.09 105.333 75.062 105.492 75.006C105.655 74.95 105.811 74.845 105.961 74.691C106.11 74.5323 106.25 74.3107 106.381 74.026C106.516 73.7413 106.637 73.3703 106.745 72.913C106.852 72.4557 106.945 71.9003 107.025 71.247C107.104 70.589 107.167 69.8097 107.214 68.909H111.701V75.055H112.996ZM118.101 72.808C117.527 72.8267 117.037 72.8733 116.631 72.948C116.23 73.018 115.901 73.1113 115.644 73.228C115.392 73.3447 115.208 73.4823 115.091 73.641C114.979 73.7997 114.923 73.977 114.923 74.173C114.923 74.3597 114.953 74.5207 115.014 74.656C115.075 74.7913 115.156 74.9033 115.259 74.992C115.366 75.076 115.49 75.139 115.63 75.181C115.775 75.2183 115.929 75.237 116.092 75.237C116.311 75.237 116.512 75.216 116.694 75.174C116.876 75.1273 117.046 75.062 117.205 74.978C117.368 74.894 117.522 74.7937 117.667 74.677C117.816 74.5603 117.961 74.4273 118.101 74.278V72.808ZM114.076 69.91C114.468 69.532 114.89 69.2497 115.343 69.063C115.796 68.8763 116.297 68.783 116.848 68.783C117.245 68.783 117.597 68.8483 117.905 68.979C118.213 69.1097 118.472 69.2917 118.682 69.525C118.892 69.7583 119.051 70.0407 119.158 70.372C119.265 70.7033 119.319 71.0673 119.319 71.464V76H118.766C118.645 76 118.551 75.9813 118.486 75.944C118.421 75.902 118.369 75.8227 118.332 75.706L118.192 75.034C118.005 75.2067 117.823 75.3607 117.646 75.496C117.469 75.6267 117.282 75.7387 117.086 75.832C116.89 75.9207 116.68 75.9883 116.456 76.035C116.237 76.0863 115.992 76.112 115.721 76.112C115.446 76.112 115.187 76.0747 114.944 76C114.701 75.9207 114.489 75.804 114.307 75.65C114.13 75.496 113.987 75.3023 113.88 75.069C113.777 74.831 113.726 74.551 113.726 74.229C113.726 73.949 113.803 73.6807 113.957 73.424C114.111 73.1627 114.361 72.9317 114.706 72.731C115.051 72.5303 115.502 72.367 116.057 72.241C116.612 72.1103 117.294 72.0357 118.101 72.017V71.464C118.101 70.9133 117.982 70.498 117.744 70.218C117.506 69.9333 117.158 69.791 116.701 69.791C116.393 69.791 116.134 69.8307 115.924 69.91C115.719 69.9847 115.539 70.071 115.385 70.169C115.236 70.2623 115.105 70.3487 114.993 70.428C114.886 70.5027 114.778 70.54 114.671 70.54C114.587 70.54 114.515 70.519 114.454 70.477C114.393 70.4303 114.342 70.3743 114.3 70.309L114.076 69.91ZM131.087 76H130.219C129.995 76 129.822 75.965 129.701 75.895C129.584 75.825 129.493 75.7153 129.428 75.566L128.049 73.361C127.82 72.997 127.491 72.815 127.062 72.815H126.348V76.007H125.137V72.815H124.43C124.22 72.815 124.029 72.8617 123.856 72.955C123.688 73.0483 123.55 73.1837 123.443 73.361L122.064 75.566C121.994 75.7153 121.898 75.825 121.777 75.895C121.66 75.965 121.49 76 121.266 76H120.405L122.267 73.067C122.388 72.8617 122.526 72.696 122.68 72.57C122.834 72.444 123.023 72.3483 123.247 72.283C123.07 72.227 122.918 72.1453 122.792 72.038C122.671 71.926 122.556 71.7837 122.449 71.611L120.601 68.909H121.581C121.702 68.909 121.812 68.9417 121.91 69.007C122.008 69.0677 122.085 69.1517 122.141 69.259L123.646 71.499C123.749 71.653 123.872 71.772 124.017 71.856C124.162 71.9353 124.332 71.975 124.528 71.975H125.137V68.909H126.348V71.975H126.943C127.34 71.975 127.638 71.8163 127.839 71.499L129.344 69.259C129.4 69.1517 129.477 69.0677 129.575 69.007C129.678 68.9417 129.79 68.909 129.911 68.909H130.891L129.043 71.611C128.936 71.7837 128.819 71.926 128.693 72.038C128.572 72.1453 128.422 72.227 128.245 72.283C128.469 72.3483 128.658 72.444 128.812 72.57C128.966 72.696 129.104 72.8617 129.225 73.067L131.087 76ZM138.333 68.909V76H137.087V71.184C137.087 71.0907 137.092 70.9903 137.101 70.883C137.111 70.7757 137.122 70.6683 137.136 70.561C137.094 70.6543 137.052 70.7407 137.01 70.82C136.968 70.8993 136.924 70.9717 136.877 71.037L133.454 75.692C133.403 75.7667 133.338 75.839 133.258 75.909C133.184 75.9743 133.1 76.007 133.006 76.007H132.25V68.916H133.503V73.732C133.503 73.8207 133.499 73.9187 133.489 74.026C133.48 74.1287 133.468 74.2337 133.454 74.341C133.496 74.2523 133.538 74.1707 133.58 74.096C133.622 74.0167 133.664 73.9443 133.706 73.879L137.129 69.224C137.181 69.1493 137.246 69.0793 137.325 69.014C137.405 68.944 137.491 68.909 137.584 68.909H138.333ZM149.968 68.909V76H148.722V71.184C148.722 71.0907 148.727 70.9903 148.736 70.883C148.745 70.7757 148.757 70.6683 148.771 70.561C148.729 70.6543 148.687 70.7407 148.645 70.82C148.603 70.8993 148.559 70.9717 148.512 71.037L145.089 75.692C145.038 75.7667 144.972 75.839 144.893 75.909C144.818 75.9743 144.734 76.007 144.641 76.007H143.885V68.916H145.138V73.732C145.138 73.8207 145.133 73.9187 145.124 74.026C145.115 74.1287 145.103 74.2337 145.089 74.341C145.131 74.2523 145.173 74.1707 145.215 74.096C145.257 74.0167 145.299 73.9443 145.341 73.879L148.764 69.224C148.815 69.1493 148.881 69.0793 148.96 69.014C149.039 68.944 149.126 68.909 149.219 68.909H149.968ZM158.154 76H156.908V69.889H154.668C154.612 70.7897 154.528 71.569 154.416 72.227C154.304 72.8803 154.168 73.438 154.01 73.9C153.856 74.3573 153.681 74.7307 153.485 75.02C153.293 75.3047 153.09 75.5263 152.876 75.685C152.666 75.8437 152.446 75.951 152.218 76.007C151.994 76.063 151.77 76.091 151.546 76.091C151.149 76.091 150.951 76.028 150.951 75.902V75.111H151.315C151.473 75.111 151.634 75.083 151.798 75.027C151.961 74.971 152.12 74.8637 152.274 74.705C152.432 74.5463 152.584 74.3247 152.729 74.04C152.873 73.7507 153.004 73.3773 153.121 72.92C153.242 72.458 153.345 71.9003 153.429 71.247C153.517 70.589 153.585 69.8097 153.632 68.909H158.154V76ZM166.21 68.909V76H164.964V71.184C164.964 71.0907 164.969 70.9903 164.978 70.883C164.988 70.7757 164.999 70.6683 165.013 70.561C164.971 70.6543 164.929 70.7407 164.887 70.82C164.845 70.8993 164.801 70.9717 164.754 71.037L161.331 75.692C161.28 75.7667 161.215 75.839 161.135 75.909C161.061 75.9743 160.977 76.007 160.883 76.007H160.127V68.916H161.38V73.732C161.38 73.8207 161.376 73.9187 161.366 74.026C161.357 74.1287 161.345 74.2337 161.331 74.341C161.373 74.2523 161.415 74.1707 161.457 74.096C161.499 74.0167 161.541 73.9443 161.583 73.879L165.006 69.224C165.058 69.1493 165.123 69.0793 165.202 69.014C165.282 68.944 165.368 68.909 165.461 68.909H166.21ZM177.67 76H176.417V69.861H173.015V76H171.762V68.909H177.67V76ZM182.64 68.797C183.158 68.797 183.624 68.8833 184.04 69.056C184.455 69.2287 184.81 69.4737 185.104 69.791C185.398 70.1083 185.622 70.4933 185.776 70.946C185.934 71.394 186.014 71.8957 186.014 72.451C186.014 73.011 185.934 73.515 185.776 73.963C185.622 74.411 185.398 74.7937 185.104 75.111C184.81 75.4283 184.455 75.6733 184.04 75.846C183.624 76.014 183.158 76.098 182.64 76.098C182.117 76.098 181.646 76.014 181.226 75.846C180.81 75.6733 180.456 75.4283 180.162 75.111C179.868 74.7937 179.641 74.411 179.483 73.963C179.329 73.515 179.252 73.011 179.252 72.451C179.252 71.8957 179.329 71.394 179.483 70.946C179.641 70.4933 179.868 70.1083 180.162 69.791C180.456 69.4737 180.81 69.2287 181.226 69.056C181.646 68.8833 182.117 68.797 182.64 68.797ZM182.64 75.125C183.34 75.125 183.862 74.8917 184.208 74.425C184.553 73.9537 184.726 73.298 184.726 72.458C184.726 71.6133 184.553 70.9553 184.208 70.484C183.862 70.0127 183.34 69.777 182.64 69.777C182.285 69.777 181.975 69.8377 181.709 69.959C181.447 70.0803 181.228 70.2553 181.051 70.484C180.878 70.7127 180.747 70.995 180.659 71.331C180.575 71.6623 180.533 72.038 180.533 72.458C180.533 73.298 180.705 73.9537 181.051 74.425C181.401 74.8917 181.93 75.125 182.64 75.125ZM191.899 69.259C191.964 69.1563 192.051 69.0723 192.158 69.007C192.265 68.9417 192.38 68.909 192.501 68.909H193.474L191.633 71.611C191.521 71.7837 191.404 71.926 191.283 72.038C191.162 72.1453 191.012 72.2293 190.835 72.29C191.059 72.3507 191.248 72.4463 191.402 72.577C191.556 72.703 191.694 72.8663 191.815 73.067L193.677 76H192.809C192.585 76 192.412 75.9627 192.291 75.888C192.17 75.8133 192.065 75.706 191.976 75.566L190.597 73.361C190.378 72.997 190.049 72.815 189.61 72.815H188.847V76.007H187.594V68.909H188.847V71.975H189.519C189.892 71.975 190.184 71.8163 190.394 71.499L191.899 69.259ZM200.958 68.909L197.003 78.093C196.961 78.1863 196.907 78.261 196.842 78.317C196.781 78.373 196.686 78.401 196.555 78.401H195.631L196.926 75.587L194 68.909H195.078C195.185 68.909 195.269 68.937 195.33 68.993C195.395 69.0443 195.44 69.1027 195.463 69.168L197.36 73.634C197.435 73.83 197.498 74.0353 197.549 74.25C197.614 74.0307 197.684 73.823 197.759 73.627L199.6 69.168C199.628 69.0933 199.675 69.0327 199.74 68.986C199.81 68.9347 199.887 68.909 199.971 68.909H200.958ZM207.967 76H206.714V69.861H203.312V76H202.059V68.909H207.967V76ZM214.253 69.259C214.318 69.1563 214.404 69.0723 214.512 69.007C214.619 68.9417 214.733 68.909 214.855 68.909H215.828L213.987 71.611C213.875 71.7837 213.758 71.926 213.637 72.038C213.515 72.1453 213.366 72.2293 213.189 72.29C213.413 72.3507 213.602 72.4463 213.756 72.577C213.91 72.703 214.047 72.8663 214.169 73.067L216.031 76H215.163C214.939 76 214.766 75.9627 214.645 75.888C214.523 75.8133 214.418 75.706 214.33 75.566L212.951 73.361C212.731 72.997 212.402 72.815 211.964 72.815H211.201V76.007H209.948V68.909H211.201V71.975H211.873C212.246 71.975 212.538 71.8163 212.748 71.499L214.253 69.259ZM223.277 68.909V76H222.031V71.184C222.031 71.0907 222.035 70.9903 222.045 70.883C222.054 70.7757 222.066 70.6683 222.08 70.561C222.038 70.6543 221.996 70.7407 221.954 70.82C221.912 70.8993 221.867 70.9717 221.821 71.037L218.398 75.692C218.346 75.7667 218.281 75.839 218.202 75.909C218.127 75.9743 218.043 76.007 217.95 76.007H217.194V68.916H218.447V73.732C218.447 73.8207 218.442 73.9187 218.433 74.026C218.423 74.1287 218.412 74.2337 218.398 74.341C218.44 74.2523 218.482 74.1707 218.524 74.096C218.566 74.0167 218.608 73.9443 218.65 73.879L222.073 69.224C222.124 69.1493 222.189 69.0793 222.269 69.014C222.348 68.944 222.434 68.909 222.528 68.909H223.277ZM233.133 69.259C233.199 69.1563 233.285 69.0723 233.392 69.007C233.5 68.9417 233.614 68.909 233.735 68.909H234.708L232.867 71.611C232.755 71.7837 232.639 71.926 232.517 72.038C232.396 72.1453 232.247 72.2293 232.069 72.29C232.293 72.3507 232.482 72.4463 232.636 72.577C232.79 72.703 232.928 72.8663 233.049 73.067L234.911 76H234.043C233.819 76 233.647 75.9627 233.525 75.888C233.404 75.8133 233.299 75.706 233.21 75.566L231.831 73.361C231.612 72.997 231.283 72.815 230.844 72.815H230.081V76.007H228.828V68.909H230.081V71.975H230.753C231.127 71.975 231.418 71.8163 231.628 71.499L233.133 69.259ZM238.797 75.125C239.264 75.125 239.633 75.0177 239.903 74.803C240.174 74.5837 240.309 74.285 240.309 73.907C240.309 73.739 240.284 73.5873 240.232 73.452C240.181 73.312 240.097 73.1907 239.98 73.088C239.864 72.9853 239.707 72.906 239.511 72.85C239.32 72.794 239.084 72.766 238.804 72.766H237.271V75.125H238.797ZM237.271 69.749V71.975H238.636C238.842 71.975 239.031 71.947 239.203 71.891C239.381 71.8303 239.532 71.7487 239.658 71.646C239.784 71.5387 239.882 71.4127 239.952 71.268C240.022 71.1187 240.057 70.9553 240.057 70.778C240.057 70.6473 240.034 70.5213 239.987 70.4C239.941 70.274 239.861 70.1643 239.749 70.071C239.637 69.973 239.49 69.896 239.308 69.84C239.126 69.7793 238.902 69.749 238.636 69.749H237.271ZM238.671 68.909C239.11 68.909 239.486 68.9533 239.798 69.042C240.111 69.1307 240.368 69.252 240.568 69.406C240.769 69.5553 240.916 69.7327 241.009 69.938C241.103 70.1433 241.149 70.3627 241.149 70.596C241.149 70.75 241.128 70.911 241.086 71.079C241.044 71.247 240.97 71.408 240.862 71.562C240.76 71.716 240.617 71.856 240.435 71.982C240.258 72.1033 240.034 72.199 239.763 72.269C240.305 72.3623 240.722 72.5513 241.016 72.836C241.31 73.116 241.457 73.487 241.457 73.949C241.457 74.2943 241.387 74.5953 241.247 74.852C241.112 75.104 240.923 75.3163 240.68 75.489C240.442 75.6617 240.162 75.79 239.84 75.874C239.518 75.958 239.173 76 238.804 76H236.074V68.909H238.671ZM246.863 72.808C246.289 72.8267 245.799 72.8733 245.393 72.948C244.991 73.018 244.662 73.1113 244.406 73.228C244.154 73.3447 243.969 73.4823 243.853 73.641C243.741 73.7997 243.685 73.977 243.685 74.173C243.685 74.3597 243.715 74.5207 243.776 74.656C243.836 74.7913 243.918 74.9033 244.021 74.992C244.128 75.076 244.252 75.139 244.392 75.181C244.536 75.2183 244.69 75.237 244.854 75.237C245.073 75.237 245.274 75.216 245.456 75.174C245.638 75.1273 245.808 75.062 245.967 74.978C246.13 74.894 246.284 74.7937 246.429 74.677C246.578 74.5603 246.723 74.4273 246.863 74.278V72.808ZM242.838 69.91C243.23 69.532 243.652 69.2497 244.105 69.063C244.557 68.8763 245.059 68.783 245.61 68.783C246.006 68.783 246.359 68.8483 246.667 68.979C246.975 69.1097 247.234 69.2917 247.444 69.525C247.654 69.7583 247.812 70.0407 247.92 70.372C248.027 70.7033 248.081 71.0673 248.081 71.464V76H247.528C247.406 76 247.313 75.9813 247.248 75.944C247.182 75.902 247.131 75.8227 247.094 75.706L246.954 75.034C246.767 75.2067 246.585 75.3607 246.408 75.496C246.23 75.6267 246.044 75.7387 245.848 75.832C245.652 75.9207 245.442 75.9883 245.218 76.035C244.998 76.0863 244.753 76.112 244.483 76.112C244.207 76.112 243.948 76.0747 243.706 76C243.463 75.9207 243.251 75.804 243.069 75.65C242.891 75.496 242.749 75.3023 242.642 75.069C242.539 74.831 242.488 74.551 242.488 74.229C242.488 73.949 242.565 73.6807 242.719 73.424C242.873 73.1627 243.122 72.9317 243.468 72.731C243.813 72.5303 244.263 72.367 244.819 72.241C245.374 72.1103 246.055 72.0357 246.863 72.017V71.464C246.863 70.9133 246.744 70.498 246.506 70.218C246.268 69.9333 245.92 69.791 245.463 69.791C245.155 69.791 244.896 69.8307 244.686 69.91C244.48 69.9847 244.301 70.071 244.147 70.169C243.997 70.2623 243.867 70.3487 243.755 70.428C243.647 70.5027 243.54 70.54 243.433 70.54C243.349 70.54 243.276 70.519 243.216 70.477C243.155 70.4303 243.104 70.3743 243.062 70.309L242.838 69.91ZM251.232 74.292C251.46 74.6 251.71 74.817 251.981 74.943C252.251 75.069 252.555 75.132 252.891 75.132C253.553 75.132 254.062 74.8963 254.417 74.425C254.771 73.9537 254.949 73.2817 254.949 72.409C254.949 71.947 254.907 71.5503 254.823 71.219C254.743 70.8877 254.627 70.617 254.473 70.407C254.319 70.1923 254.13 70.036 253.906 69.938C253.682 69.84 253.427 69.791 253.143 69.791C252.737 69.791 252.38 69.8843 252.072 70.071C251.768 70.2577 251.488 70.5213 251.232 70.862V74.292ZM251.169 70.008C251.467 69.6393 251.813 69.343 252.205 69.119C252.597 68.895 253.045 68.783 253.549 68.783C253.959 68.783 254.33 68.8623 254.662 69.021C254.993 69.175 255.275 69.406 255.509 69.714C255.742 70.0173 255.922 70.3953 256.048 70.848C256.174 71.3007 256.237 71.821 256.237 72.409C256.237 72.9317 256.167 73.4193 256.027 73.872C255.887 74.32 255.684 74.7097 255.418 75.041C255.156 75.3677 254.834 75.6267 254.452 75.818C254.074 76.0047 253.647 76.098 253.171 76.098C252.737 76.098 252.363 76.0257 252.051 75.881C251.743 75.7317 251.47 75.5263 251.232 75.265V78.401H249.979V68.909H250.728C250.905 68.909 251.015 68.9953 251.057 69.168L251.169 70.008ZM263.515 69.861H260.792V76H259.546V69.861H256.823V68.909H263.515V69.861ZM270.786 68.909V76H269.54V71.184C269.54 71.0907 269.545 70.9903 269.554 70.883C269.564 70.7757 269.575 70.6683 269.589 70.561C269.547 70.6543 269.505 70.7407 269.463 70.82C269.421 70.8993 269.377 70.9717 269.33 71.037L265.907 75.692C265.856 75.7667 265.791 75.839 265.711 75.909C265.637 75.9743 265.553 76.007 265.459 76.007H264.703V68.916H265.956V73.732C265.956 73.8207 265.952 73.9187 265.942 74.026C265.933 74.1287 265.921 74.2337 265.907 74.341C265.949 74.2523 265.991 74.1707 266.033 74.096C266.075 74.0167 266.117 73.9443 266.159 73.879L269.582 69.224C269.634 69.1493 269.699 69.0793 269.778 69.014C269.858 68.944 269.944 68.909 270.037 68.909H270.786ZM274.009 74.292C274.238 74.6 274.487 74.817 274.758 74.943C275.029 75.069 275.332 75.132 275.668 75.132C276.331 75.132 276.839 74.8963 277.194 74.425C277.549 73.9537 277.726 73.2817 277.726 72.409C277.726 71.947 277.684 71.5503 277.6 71.219C277.521 70.8877 277.404 70.617 277.25 70.407C277.096 70.1923 276.907 70.036 276.683 69.938C276.459 69.84 276.205 69.791 275.92 69.791C275.514 69.791 275.157 69.8843 274.849 70.071C274.546 70.2577 274.266 70.5213 274.009 70.862V74.292ZM273.946 70.008C274.245 69.6393 274.59 69.343 274.982 69.119C275.374 68.895 275.822 68.783 276.326 68.783C276.737 68.783 277.108 68.8623 277.439 69.021C277.77 69.175 278.053 69.406 278.286 69.714C278.519 70.0173 278.699 70.3953 278.825 70.848C278.951 71.3007 279.014 71.821 279.014 72.409C279.014 72.9317 278.944 73.4193 278.804 73.872C278.664 74.32 278.461 74.7097 278.195 75.041C277.934 75.3677 277.612 75.6267 277.229 75.818C276.851 76.0047 276.424 76.098 275.948 76.098C275.514 76.098 275.141 76.0257 274.828 75.881C274.52 75.7317 274.247 75.5263 274.009 75.265V78.401H272.756V68.909H273.505C273.682 68.909 273.792 68.9953 273.834 69.168L273.946 70.008ZM283.313 75.09C283.565 75.09 283.782 75.0597 283.964 74.999C284.151 74.9337 284.305 74.845 284.426 74.733C284.547 74.6163 284.638 74.481 284.699 74.327C284.76 74.173 284.79 74.005 284.79 73.823C284.79 73.655 284.764 73.4987 284.713 73.354C284.662 73.2047 284.575 73.074 284.454 72.962C284.337 72.85 284.183 72.7613 283.992 72.696C283.801 72.6307 283.567 72.598 283.292 72.598H281.78V75.09H283.313ZM283.292 71.688C283.782 71.688 284.193 71.7463 284.524 71.863C284.86 71.9797 285.128 72.136 285.329 72.332C285.534 72.528 285.681 72.7543 285.77 73.011C285.859 73.2677 285.903 73.5337 285.903 73.809C285.903 74.1263 285.847 74.4203 285.735 74.691C285.623 74.957 285.457 75.188 285.238 75.384C285.019 75.5753 284.748 75.727 284.426 75.839C284.104 75.9463 283.733 76 283.313 76H280.59V68.909H281.78V71.688H283.292ZM288.71 68.909V76H287.464V68.909H288.71ZM290.151 66.865C290.295 66.7297 290.454 66.6013 290.627 66.48C290.804 66.3587 290.995 66.2513 291.201 66.158C291.411 66.0647 291.635 65.9923 291.873 65.941C292.115 65.885 292.377 65.857 292.657 65.857C293.025 65.857 293.366 65.9107 293.679 66.018C293.996 66.1253 294.269 66.277 294.498 66.473C294.726 66.669 294.906 66.907 295.037 67.187C295.167 67.467 295.233 67.782 295.233 68.132C295.233 68.4867 295.179 68.7923 295.072 69.049C294.969 69.3057 294.836 69.532 294.673 69.728C294.514 69.9193 294.339 70.0873 294.148 70.232C293.961 70.372 293.784 70.505 293.616 70.631C293.448 70.757 293.303 70.883 293.182 71.009C293.065 71.135 292.997 71.275 292.979 71.429L292.853 72.5H291.999L291.915 71.338C291.896 71.128 291.936 70.946 292.034 70.792C292.132 70.6333 292.26 70.4863 292.419 70.351C292.577 70.211 292.752 70.0757 292.944 69.945C293.135 69.8097 293.312 69.6603 293.476 69.497C293.644 69.3337 293.784 69.1493 293.896 68.944C294.008 68.734 294.064 68.4843 294.064 68.195C294.064 67.9943 294.024 67.8123 293.945 67.649C293.865 67.4857 293.758 67.348 293.623 67.236C293.487 67.1193 293.326 67.0307 293.14 66.97C292.958 66.9093 292.762 66.879 292.552 66.879C292.267 66.879 292.022 66.914 291.817 66.984C291.616 67.054 291.446 67.131 291.306 67.215C291.166 67.299 291.051 67.376 290.963 67.446C290.879 67.516 290.809 67.551 290.753 67.551C290.636 67.551 290.545 67.4973 290.48 67.39L290.151 66.865ZM291.516 75.23C291.516 75.1087 291.537 74.9943 291.579 74.887C291.625 74.7797 291.686 74.6863 291.761 74.607C291.84 74.5277 291.933 74.4647 292.041 74.418C292.148 74.3713 292.262 74.348 292.384 74.348C292.505 74.348 292.619 74.3713 292.727 74.418C292.834 74.4647 292.927 74.5277 293.007 74.607C293.086 74.6863 293.149 74.7797 293.196 74.887C293.242 74.9943 293.266 75.1087 293.266 75.23C293.266 75.356 293.242 75.4727 293.196 75.58C293.149 75.6827 293.086 75.7737 293.007 75.853C292.927 75.9323 292.834 75.993 292.727 76.035C292.619 76.0817 292.505 76.105 292.384 76.105C292.262 76.105 292.148 76.0817 292.041 76.035C291.933 75.993 291.84 75.9323 291.761 75.853C291.686 75.7737 291.625 75.6827 291.579 75.58C291.537 75.4727 291.516 75.356 291.516 75.23Z" fill="#475658"/>
<path d="M31.05 27.45V33H7.05V27.45H15.84V2.16C15.84 1.16 15.87 0.129998 15.93 -0.930001L9.69 4.29C9.33 4.57 8.97 4.75 8.61 4.83C8.27 4.89 7.94 4.89 7.62 4.83C7.32 4.77 7.05 4.67 6.81 4.53C6.57 4.37 6.39 4.2 6.27 4.02L3.93 0.809998L17.16 -10.44H23.25V27.45H31.05Z" fill="#03073C"/>
</svg>
